<?xml version="1.0" standalone="no"?>
<!DOCTYPE svg PUBLIC "-//W3C//DTD SVG 1.1//EN" "http://www.w3.org/Graphics/SVG/1.1/DTD/svg11.dtd" >
<svg xmlns="http://www.w3.org/2000/svg">
<metadata></metadata>
<defs>
<font id="AllerLightItalic" horiz-adv-x="1228" >
<font-face units-per-em="2048" ascent="1638" descent="-410" />
<missing-glyph horiz-adv-x="485" />
<glyph unicode="&#xfb01;" horiz-adv-x="1148" d="M-180 -477q13 52 41 115q47 -19 99 -19t92 10.5t70 38.5q60 58 87 223l182 1039h-170q0 70 19 114h170l16 93q35 193 134 289t274 96q117 0 254 -42q30 -10 42 -16q-7 -58 -43 -114q-134 55 -253 55q-117 0 -176 -55q-71 -66 -97 -220l-16 -86h606l-182 -1044 q-24 -4 -54 -4q-61 0 -81 4l163 930h-471l-182 -1045q-35 -205 -125 -295t-262 -90q-86 0 -137 23z" />
<glyph unicode="&#xfb02;" horiz-adv-x="1224" d="M-180 -477q13 52 41 115q47 -19 99 -19t92 10.5t70 38.5q60 58 87 223l182 1039h-170q0 70 19 114h170l16 93q35 193 134 289t274 96q174 0 366 -62q2 -23 2 -40v-38t-4 -57.5t-9 -77.5q-6 -52 -26 -157l-149 -848q-6 -31 -6 -59t9 -46t23 -27q21 -14 69.5 -14t84.5 13 q17 -48 12 -107q-62 -20 -143 -20q-195 0 -195 165q0 27 6 64l142 809q45 276 49 350q-90 35 -188 35t-142.5 -12.5t-76.5 -42.5q-71 -66 -97 -220l-16 -86h272q0 -68 -18 -114h-273l-182 -1045q-35 -205 -125 -295t-262 -90q-86 0 -137 23z" />
<glyph unicode="&#xfb03;" horiz-adv-x="1755" d="M-180 -477q13 52 41 115q47 -19 99 -19t92 10.5t70 38.5q60 58 87 223l182 1039h-170q0 70 19 114h170l16 93q35 193 125 289t262 96q86 0 137 -23q-10 -42 -43 -115q-53 21 -101 21t-87 -12.5t-69 -42.5q-63 -66 -89 -220l-16 -86h469l16 93q35 193 134.5 289t273.5 96 q117 0 254 -42q30 -10 43 -16q-6 -54 -43 -114q-134 55 -254 55q-117 0 -176 -55q-69 -64 -97 -220l-16 -86h606l-182 -1044q-74 -12 -135 0l164 930h-472l-182 -1045q-35 -205 -125 -295t-262 -90q-86 0 -137 23q10 41 19.5 63.5t21.5 51.5q47 -19 99 -19t92 10.5t70 38.5 q60 58 87 223l182 1039h-469l-182 -1045q-35 -205 -126 -295t-261 -90q-86 0 -137 23z" />
<glyph unicode="&#xfb04;" horiz-adv-x="1837" d="M-180 -477q13 52 41 115q47 -19 99 -19t92 10.5t70 38.5q60 58 87 223l182 1039h-170q0 70 19 114h170l16 93q35 193 125 289t262 96q86 0 137 -23q-10 -42 -43 -115q-53 21 -101 21t-87 -12.5t-69 -42.5q-63 -66 -89 -220l-16 -86h477l16 93q35 193 134.5 289t273.5 96 q180 0 366 -62q3 -34 3 -66.5t-4.5 -69t-9.5 -77.5q-8 -68 -25 -157l-150 -848q-6 -31 -6 -59t9 -46t23 -27q21 -14 69.5 -14t84.5 13q18 -50 13 -107q-62 -20 -144 -20q-194 0 -194 165q0 27 6 64l141 809q45 276 49 350q-90 35 -188 35t-142 -12.5t-77 -42.5 q-69 -65 -96 -220l-17 -86h273q0 -65 -19 -114h-272l-183 -1045q-35 -205 -125 -295t-262 -90q-84 0 -137 23q10 41 19.5 63.5t21.5 51.5q47 -19 99 -19t92.5 10.5t69.5 38.5q60 58 87 223l183 1039h-478l-182 -1045q-35 -205 -126 -295t-261 -90q-86 0 -137 23z" />
<glyph unicode="&#xd;" horiz-adv-x="485" />
<glyph horiz-adv-x="0" />
<glyph horiz-adv-x="0" />
<glyph unicode=" "  horiz-adv-x="485" />
<glyph unicode="&#x09;" horiz-adv-x="485" />
<glyph unicode="&#xa0;" horiz-adv-x="485" />
<glyph unicode="!" horiz-adv-x="550" d="M197 0q0 71 28 174q37 6 80 6t78 -6q0 -63 -11.5 -107t-17.5 -67q-41 -6 -87 -6t-70 6zM289 420l178 1053q32 4 68 4q37 0 77 -4l-192 -1053q-32 -4 -68 -4q-35 0 -63 4z" />
<glyph unicode="&#x22;" horiz-adv-x="739" d="M254 922l96 551q28 4 62 4q52 0 82 -4l-97 -551q-28 -4 -59 -4q-56 0 -84 4zM643 922l96 551q28 4 62 4q52 0 82 -4l-97 -551q-28 -4 -59 -4q-56 0 -84 4z" />
<glyph unicode="#" horiz-adv-x="1431" d="M172 436l8 58l13 61h266l104 406h-258l8 57q4 18 6.5 30.5t6.5 28.5h268l88 338q23 4 38 4h58t39 -2l-86 -340h393l86 338q23 4 40 4h56.5t43.5 -2l-88 -340h243q-2 -16 -2 -30t-18 -86h-252l-105 -406h242q0 -25 -8 -57q-4 -33 -12 -62h-252l-97 -377q-20 -2 -39 -2 h-57.5t-36.5 2l95 377h-396l-94 -377q-23 -2 -38 -2h-61t-42 2l96 377h-256zM598 555h395l103 406h-396z" />
<glyph unicode="$" d="M188 41q20 79 52 127q70 -25 139.5 -43.5t177.5 -18.5q188 0 287.5 86.5t99.5 231.5q0 88 -48 153.5t-147.5 114t-158 82t-103.5 74.5q-96 87 -96 239t105.5 256.5t306.5 124.5l28 181q31 6 60 6t57 -6l-28 -174q155 -7 284 -58q-13 -70 -49 -127q-117 62 -278 62 q-334 0 -334 -244q0 -90 60.5 -151.5t162.5 -113.5t162.5 -91t98.5 -83q73 -85 73 -199.5t-32 -193.5t-90 -138q-120 -124 -321 -152l-39 -228q-29 -6 -59.5 -6t-56.5 6l37 217h-9q-75 0 -161 17q-137 26 -181 49z" />
<glyph unicode="%" horiz-adv-x="1988" d="M240 950q0 202 102 352q115 171 316 171q158 0 232.5 -94.5t74.5 -252.5q0 -202 -106 -355q-116 -167 -318 -167q-152 0 -226.5 94.5t-74.5 251.5zM387 956q0 -237 166 -237q125 0 201 131q63 109 63 268q0 240 -170 240q-126 0 -197 -132q-63 -117 -63 -270zM400 0 l1243 1448q32 4 70 4q56 0 98 -4l-1241 -1448q-23 -4 -41 -4h-77.5t-51.5 4zM1254 325q0 202 102 352q115 171 316 171q158 0 232.5 -94.5t74.5 -252.5q0 -202 -106 -355q-116 -167 -318 -167q-152 0 -226.5 94.5t-74.5 251.5zM1401 331q0 -237 166 -237q125 0 201 131 q63 109 63 268q0 240 -170 240q-126 0 -197 -132q-63 -117 -63 -270z" />
<glyph unicode="&#x26;" horiz-adv-x="1449" d="M188 385q0 161 93 293q94 132 254 188q-63 28 -95 66q-71 83 -71 181.5t36.5 169.5t96.5 119q120 95 295 95q154 0 262 -39q-14 -68 -45 -110q-116 34 -230 34t-191 -70.5t-77 -181.5q0 -104 80 -156q63 -40 160 -40h456q29 154 29 252v22q76 23 133 23q2 -23 2 -40 v-60.5t-26 -196.5h243q-11 -88 -22 -125h-244l-63 -365q-41 -231 -192.5 -350t-387 -119t-366 101.5t-130.5 308.5zM354 389q0 -127 76 -205t228.5 -78t234.5 34t132 94q80 94 120 313l45 262h-418q-187 0 -304 -119q-114 -116 -114 -301z" />
<glyph unicode="'" horiz-adv-x="350" d="M254 922l96 551q28 4 62 4q52 0 82 -4l-97 -551q-28 -4 -59 -4q-56 0 -84 4z" />
<glyph unicode="(" horiz-adv-x="620" d="M256 202q0 244 29 409.5t77 310.5t105 271q113 250 233 396q24 4 55 4q47 0 81 -4q-130 -189 -197 -324q-246 -501 -246 -1013q0 -333 103 -594q-20 -2 -39 -2h-58.5t-38.5 2q-43 92 -73.5 247.5t-30.5 296.5z" />
<glyph unicode=")" horiz-adv-x="620" d="M-23 -342q130 189 197 324q246 501 246 1013q0 333 -103 594q20 2 39 2h58t39 -2q43 -92 73.5 -247.5t30.5 -295.5q0 -246 -30 -410.5t-77 -310t-104 -271.5q-111 -245 -233 -396q-46 -4 -66 -4q-38 0 -70 4z" />
<glyph unicode="*" horiz-adv-x="946" d="M276 1157q15 55 50 100l227 -71q-18 -63 -57 -121zM334 803l174 213q63 -44 88 -76l-188 -201q-45 25 -74 64zM608 1219l58 251q55 12 104 0l-35 -251q-20 -5 -61 -5h-32q-17 0 -34 5zM647 940q61 49 115 80l100 -215q-54 -46 -98 -64zM772 1188l256 69q12 -37 12 -63 t-2 -37l-250 -90q-16 55 -16 121z" />
<glyph unicode="+" d="M295 653q0 73 18 129h357l67 381q28 4 55 4q50 0 82 -4l-67 -381h350q0 -74 -18 -129h-355l-67 -381q-16 -4 -35 -4h-61t-41 4l67 381h-352z" />
<glyph unicode="," horiz-adv-x="399" d="M12 -231l176 405q32 4 62 4q46 0 80 -4l-174 -405q-25 -5 -60 -5h-50q-17 0 -34 5z" />
<glyph unicode="-" horiz-adv-x="686" d="M195 514q4 72 24 139h520q0 -31 -10 -71q-4 -16 -7 -37t-7 -31h-520z" />
<glyph unicode="." horiz-adv-x="399" d="M113 0q0 71 28 174q43 6 88 6t86 -6q0 -67 -28 -174q-53 -6 -100 -6t-74 6z" />
<glyph unicode="/" horiz-adv-x="714" d="M59 0l732 1473q31 6 56 6q59 0 85 -6l-733 -1473q-24 -6 -68.5 -6t-71.5 6z" />
<glyph unicode="0" d="M186 492q0 358 150 640q110 206 304 296q99 45 217 45t197 -40t130 -109q100 -135 100 -359q0 -355 -156 -643q-115 -212 -302 -300q-97 -47 -214 -47t-197.5 40t-132.5 109q-96 129 -96 368zM336 499.5q0 -183.5 66.5 -287t220.5 -103.5q258 0 397 297q115 246 115 559 q0 270 -157 347q-54 27 -140 27t-162 -39.5t-133.5 -105.5t-96 -153t-63.5 -181q-47 -177 -47 -360.5z" />
<glyph unicode="1" d="M205 0q0 53 20 123h371l199 1128l-334 -155q-34 49 -39 106l534 262h17l-238 -1341h342q0 -56 -20 -123h-852z" />
<glyph unicode="2" d="M139 25l523 550q192 201 246.5 282t75 138.5t20.5 139t-54.5 146.5t-204.5 65t-368 -99q-41 52 -45 117q131 68 308 98q60 11 138 11t153 -26t124 -70q98 -88 98 -234q0 -155 -109 -317q-88 -132 -270 -322l-354 -377h694q0 -60 -20 -127h-949z" />
<glyph unicode="3" d="M193 51q19 55 65 119q49 -29 134 -48.5t175 -19.5t168 28t135 80q117 108 117 300q0 190 -179 234q-52 12 -134 12t-152 -17l-12 27l491 553h-571q0 66 21 129h800l6 -16l-499 -564q181 -4 282 -103q95 -93 95 -230.5t-43 -238.5t-119 -173q-156 -148 -412 -148 q-150 0 -294 45q-46 15 -74 31z" />
<glyph unicode="4" d="M160 299l792 1182q58 -8 113 -60l-678 -1013h473l78 436q24 4 55 4q64 0 84 -4l-78 -436h207q0 -62 -20 -129h-209l-49 -279q-24 -4 -55 -4q-63 0 -85 4l50 279h-670z" />
<glyph unicode="5" d="M156 41q26 76 63 123q51 -23 110.5 -42.5t159 -19.5t178 28t135.5 83q124 118 124 330q0 113 -65.5 178t-207.5 65q-67 0 -217 -22l-26 -4l-13 16l144 672h641q0 -59 -21 -129h-514l-88 -422q51 10 143 10t164 -27.5t119 -74.5q92 -92 92 -242.5t-50 -259t-133 -181.5 q-167 -147 -413 -147q-200 0 -325 66z" />
<glyph unicode="6" d="M256 406q0 237 102 470q170 391 532 550q127 57 281 73q11 -45 11 -69.5t-2 -53.5q-263 -32 -455 -200q-186 -163 -262 -426q140 182 377 182q154 0 248 -93q100 -98 100 -256.5t-47 -269t-123 -186.5q-152 -152 -361 -152q-205 0 -312 135q-89 112 -89 296zM403 365 q0 -177 142 -245q49 -24 131 -24t152.5 39t118.5 103q97 128 97 311q0 262 -253 262q-147 0 -257 -109q-131 -128 -131 -337z" />
<glyph unicode="7" d="M360 47l760 1272h-712q0 59 20 129h907l8 -8l-864 -1456q-78 10 -119 63z" />
<glyph unicode="8" d="M197 314q0 91 33.5 164t91.5 130q107 108 284 172q-90 46 -130 94q-81 97 -81 220q0 155 134.5 267t334.5 112q146 0 249 -71q116 -80 116 -226q0 -141 -104 -252q-84 -91 -230 -144q181 -82 241 -232q23 -56 23 -144t-44 -171t-117 -141q-151 -117 -375 -117 q-303 0 -393 183q-33 65 -33 156zM344 333q0 -64 22.5 -109.5t60.5 -73.5q75 -54 184.5 -54t180 25.5t120.5 70.5q98 88 98 209q0 218 -271 314q-280 -78 -367 -259q-28 -59 -28 -123zM541 1083q0 -100 81 -165q48 -38 142 -70q321 91 321 315q0 102 -75 155 q-63 44 -149.5 44t-145 -23.5t-97.5 -62.5q-77 -79 -77 -193z" />
<glyph unicode="9" d="M283 863.5q0 157.5 47 268.5t122.5 187t171 113.5t198 37.5t179 -36.5t125.5 -97.5q88 -110 88 -296q0 -236 -101 -470q-169 -390 -532 -550q-128 -57 -282 -73q-13 75 -8 123q258 27 455 199q186 164 262 427q-140 -182 -377 -182q-156 0 -249 93q-99 99 -99 256.5z M426 897q0 -262 254 -262q145 0 256 109q131 127 131 337q0 179 -143 245q-50 24 -130.5 24t-151.5 -39t-119 -103q-97 -128 -97 -311z" />
<glyph unicode=":" horiz-adv-x="399" d="M113 0q0 71 28 174q43 6 88 6t86 -6q0 -67 -28 -174q-53 -6 -100 -6t-74 6zM246 758q0 71 28 174q43 6 88 6t86 -6q0 -67 -28 -174q-53 -6 -100 -6t-74 6z" />
<glyph unicode=";" horiz-adv-x="399" d="M-25 -231l176 405q32 4 62 4q46 0 80 -4l-174 -405q-25 -5 -60 -5h-50q-17 0 -34 5zM269 758q0 71 28 174q43 6 88 6t86 -6q0 -67 -28 -174q-53 -6 -100 -6t-74 6z" />
<glyph unicode="&#x3c;" d="M297 637q0 87 27 149l884 359q0 -82 -24 -154l-729 -286l628 -279q4 -70 -26 -145z" />
<glyph unicode="=" d="M266 457q0 75 19 129h843q0 -74 -18 -129h-844zM330 834q0 74 18 129h844q0 -75 -18 -129h-844z" />
<glyph unicode="&#x3e;" d="M254 281v8q0 48 11 93.5t14 51.5l729 287l-629 278v9q0 80 27 137l759 -357q0 -82 -26 -149z" />
<glyph unicode="?" horiz-adv-x="944" d="M317 1427q165 52 294.5 52t204.5 -29t125 -76q99 -93 99 -237q0 -176 -136 -315q-122 -123 -300 -173l-39 -229h-139l55 317l72 23q224 66 302 234q26 57 26 126q0 113 -76 171.5t-185.5 58.5t-169 -14.5t-118.5 -35.5q-6 20 -7 47t-6 58zM338 4q5 110 31 174q39 6 86 6 t88 -6q-9 -108 -35 -174q-41 -6 -86 -6t-84 6z" />
<glyph unicode="@" horiz-adv-x="1978" d="M195 432q0 407 262 716q183 214 483 302q154 45 326 45t307 -42t235 -127q211 -181 211 -517q0 -272 -139 -470q-68 -97 -167 -157.5t-232 -60.5t-219 55q-112 -74 -293 -74q-148 0 -235 93q-81 87 -81 225.5t47.5 257.5t128 205t189 134t206.5 48q137 0 292 -41 l-158 -758q44 -35 136.5 -35t164.5 53.5t122 137.5q101 170 101 387q0 276 -160.5 419.5t-453.5 143.5q-221 0 -394.5 -80t-292 -211t-180 -299t-61.5 -340t48 -293.5t132 -199.5q164 -152 443 -152q173 0 340 58q23 -61 30 -109q-155 -65 -405 -65q-322 0 -520 185 q-213 200 -213 566zM805 449q0 -115 50 -169.5t163 -54.5q96 0 201 54l133 649q-51 14 -125 14t-154 -37t-139 -103q-129 -141 -129 -353z" />
<glyph unicode="A" horiz-adv-x="1173" d="M88 0l657 1473q32 4 77 4q80 0 102 -4l217 -1473q-20 -4 -58 -4q-68 0 -96 4l-51 385h-528l-166 -385q-32 -4 -65 -4q-65 0 -89 4zM463 516h455l-107 803z" />
<glyph unicode="B" horiz-adv-x="1179" d="M211 0l258 1473q20 2 57 6t79 8q84 8 163 8q203 0 310.5 -77t107.5 -228t-90 -264q-75 -95 -205 -138q108 -17 179 -94q77 -83 77 -217.5t-51.5 -229.5t-137.5 -155q-166 -117 -430 -117q-184 0 -317 25zM373 111q69 -11 156.5 -11t169 15.5t147.5 55.5q147 90 147 284 q0 258 -319 258h-195zM502 846h180q170 0 260 85t90 210t-61.5 180t-210.5 55q-94 0 -166 -12z" />
<glyph unicode="C" horiz-adv-x="1187" d="M248 549q0 174 46 344t142 304t243.5 217t352.5 83q170 0 309 -49q-14 -67 -47 -121q-122 43 -276 43t-272.5 -67.5t-195.5 -180.5q-151 -220 -151 -563q0 -223 106.5 -340t295 -117t317.5 68q31 -47 37 -117q-160 -78 -392.5 -78t-373.5 147.5t-141 426.5z" />
<glyph unicode="D" horiz-adv-x="1396" d="M211 0l258 1473q160 22 320.5 22t283.5 -45t198 -126q136 -147 136 -431q0 -386 -191 -631q-223 -287 -645 -287q-204 0 -360 25zM375 123q84 -12 231.5 -12t272.5 57t209 158q172 210 172 538q0 251 -105 370q-119 134 -393 134q-88 0 -170 -14z" />
<glyph unicode="E" horiz-adv-x="1062" d="M211 0l258 1473h758q0 -66 -23 -130h-614l-88 -497h493q0 -72 -22 -129h-494l-102 -588h633q-4 -70 -25 -129h-774z" />
<glyph unicode="F" horiz-adv-x="999" d="M211 0l258 1473h694q-5 -79 -22 -130h-551l-88 -497h477q-5 -82 -23 -129h-477l-125 -717q-32 -4 -62 -4q-61 0 -81 4z" />
<glyph unicode="G" horiz-adv-x="1343" d="M248 551q0 398 183 652q95 132 244.5 213t360.5 81q166 0 305 -49q-15 -70 -47 -123q-122 43 -276 43t-272.5 -67.5t-195.5 -178.5q-151 -219 -151 -563q0 -223 106.5 -340t305.5 -117q138 0 244 43l108 615q28 4 61 4q53 0 83 -4l-125 -703q-112 -55 -294 -75 q-57 -7 -146 -7t-186 40t-166 115q-142 156 -142 421z" />
<glyph unicode="H" horiz-adv-x="1361" d="M213 0l258 1473q24 4 56 4q61 0 85 -4l-110 -627h655l111 627q24 4 55 4q62 0 86 -4l-258 -1473q-24 -4 -61 -4q-60 0 -80 4l125 717h-656l-125 -717q-24 -4 -60 -4q-61 0 -81 4z" />
<glyph unicode="I" horiz-adv-x="565" d="M213 0l258 1473q28 4 61 4q52 0 80 -4l-258 -1473q-32 -4 -62 -4q-59 0 -79 4z" />
<glyph unicode="J" horiz-adv-x="772" d="M59 4q7 65 39 127q78 -27 131.5 -27t93 7.5t71.5 28.5q66 45 89 171l185 1037h-256q5 80 20 125h397l-206 -1180q-45 -253 -249 -303q-65 -15 -132 -15q-110 0 -183 29z" />
<glyph unicode="K" horiz-adv-x="1167" d="M213 0l258 1473q28 4 61 4q52 0 80 -4l-258 -1473q-32 -4 -62 -4q-59 0 -79 4zM578 754l606 719q32 4 71 4q45 0 91 -4l-603 -715l408 -758q-46 -4 -88 -4q-40 0 -74 4z" />
<glyph unicode="L" horiz-adv-x="1003" d="M211 0l258 1473q24 4 61 4q54 0 82 -4l-235 -1344h598q-5 -80 -25 -129h-739z" />
<glyph unicode="M" horiz-adv-x="1624" d="M170 0l330 1473q24 4 88 4q48 0 78 -4l225 -977l555 977q24 4 67 4q75 0 103 -4l-184 -1473q-32 -4 -64 -4q-60 0 -80 4l164 1239l-534 -934q-16 -4 -30 -4h-48.5t-32.5 4l-223 934l-273 -1239q-32 -4 -61 -4q-60 0 -80 4z" />
<glyph unicode="N" horiz-adv-x="1376" d="M211 0l258 1473q28 4 63 4q60 0 84 -4l455 -1240l215 1240q24 4 55 4q58 0 82 -4l-256 -1473q-24 -4 -59 -4q-66 0 -90 4l-455 1233l-213 -1233q-32 -4 -71 -4q-48 0 -68 4z" />
<glyph unicode="O" horiz-adv-x="1441" d="M248 492.5q0 220.5 53 400.5t149.5 314t231.5 212t277.5 78t230.5 -42t146 -115q116 -143 116 -364.5t-53 -403t-150.5 -313.5t-233.5 -208t-276.5 -76t-227.5 40t-145 112q-118 145 -118 365.5zM395 524q0 -193 82 -306.5t260 -113.5q121 0 224.5 67t180.5 181 q163 240 163 596q0 297 -187 388q-65 32 -173.5 32t-213 -65.5t-179.5 -178.5q-157 -238 -157 -600z" />
<glyph unicode="P" horiz-adv-x="1136" d="M211 0l258 1473q20 2 56 7t77 8t81 6t105.5 3t151.5 -20.5t148 -64.5q131 -94 131 -284q0 -274 -181 -420q-160 -130 -403 -130q-108 0 -178 8l-103 -586q-32 -4 -62 -4q-61 0 -81 4zM479 715q52 -8 139 -8q213 0 331 97t118 300q0 150 -82 209t-260 59q-78 0 -133 -10z " />
<glyph unicode="Q" horiz-adv-x="1441" d="M248 492.5q0 220.5 53 400.5t149.5 314t231.5 212t277.5 78t230.5 -42t146 -115q116 -143 116 -364.5t-53 -403t-150.5 -313.5t-233.5 -208t-276.5 -76t-227.5 40t-145 112q-118 145 -118 365.5zM395 524q0 -193 82 -306.5t260 -113.5q121 0 224.5 67t180.5 181 q163 240 163 596q0 297 -187 388q-65 32 -173.5 32t-213 -65.5t-179.5 -178.5q-157 -238 -157 -600zM811 -186q8 48 47 123l428 -84q-13 -75 -47 -127z" />
<glyph unicode="R" horiz-adv-x="1157" d="M211 0l260 1479q147 18 255 18t187.5 -18.5t140.5 -60.5q136 -93 136 -273q0 -194 -128 -331q-87 -93 -259 -175l305 -639q-23 -4 -44 -4h-71t-47 4l-330 688l82 35q146 62 207 117q131 117 131 278q0 258 -291 258q-73 0 -151 -10l-240 -1366q-32 -4 -64 -4q-55 0 -79 4 z" />
<glyph unicode="S" horiz-adv-x="1089" d="M115 33q19 73 55 131q74 -25 142.5 -41.5t164.5 -16.5q207 0 309.5 90.5t102.5 235.5q0 137 -116 220q-44 32 -112.5 68t-126 71.5t-98.5 80.5q-84 94 -84 232q0 171 138 282q139 111 364 111q177 0 322 -57q-14 -76 -50 -127q-115 61 -274.5 61t-253.5 -63.5t-94 -186.5 q0 -91 49 -151q48 -59 149 -112.5t161.5 -93.5t100.5 -85q80 -90 80 -216t-44 -216t-120 -152q-154 -123 -405 -123q-206 0 -360 58z" />
<glyph unicode="T" horiz-adv-x="1001" d="M283 1346q0 63 22 127h895q0 -63 -22 -127h-377l-236 -1346q-28 -4 -59 -4q-62 0 -82 4l235 1346h-376z" />
<glyph unicode="U" horiz-adv-x="1351" d="M270 369q0 74 23 196l160 908q28 4 62 4q53 0 81 -4l-156 -889q-22 -134 -22 -217q0 -141 63.5 -198.5t188 -57.5t195.5 31.5t120 91.5q88 110 131 350l156 889q28 4 59 4q56 0 84 -4l-164 -930q-52 -286 -182 -421q-141 -147 -399 -147q-399 0 -400 394z" />
<glyph unicode="V" horiz-adv-x="1236" d="M342 1473q20 4 58 4q66 0 96 -4l176 -1319l569 1319q32 4 66 4q66 0 92 -4l-662 -1473q-32 -4 -75 -4q-85 0 -105 4z" />
<glyph unicode="W" horiz-adv-x="1828" d="M352 1473q24 4 74 4t76 -4l43 -1297l528 1297q24 4 67 4q81 0 109 -4l101 -1297l477 1297q32 4 64 4q65 0 89 -4l-571 -1473q-32 -4 -73 -4q-85 0 -109 4l-101 1266l-522 -1266q-28 -4 -92 -4q-74 0 -94 4z" />
<glyph unicode="X" horiz-adv-x="1204" d="M55 0l529 782l-228 691q40 4 67 4q45 0 79 -4l225 -703l-514 -770q-32 -4 -66 -4q-62 0 -92 4zM745 770l469 703q32 4 64 4q50 0 86 -4l-473 -707l272 -766q-16 -4 -35 -4h-36q-42 0 -66 4z" />
<glyph unicode="Y" horiz-adv-x="1103" d="M297 1473q24 4 60 4q66 0 96 -4l225 -775l455 775q32 4 65 4q66 0 90 -4l-565 -936l-92 -537q-32 -4 -63 -4q-57 0 -79 4l97 545z" />
<glyph unicode="Z" horiz-adv-x="1079" d="M82 16l913 1327h-647q5 83 23 130h856l6 -15l-918 -1329h705q-10 -93 -25 -129h-905z" />
<glyph unicode="[" horiz-adv-x="688" d="M133 -344l330 1876h395q-6 -76 -20 -117h-256l-289 -1644h256q-6 -70 -21 -115h-395z" />
<glyph unicode="\" horiz-adv-x="712" d="M299 1473q39 6 74 6t59 -6l219 -1473q-35 -6 -58 -6q-55 0 -73 6z" />
<glyph unicode="]" horiz-adv-x="651" d="M-2 -344q6 76 20 117h256l289 1644h-256q6 70 21 115h395l-330 -1876h-395z" />
<glyph unicode="^" horiz-adv-x="1071" d="M262 762l445 711q30 6 78 6t85 -6l195 -711h-137l-160 598l-369 -598h-137z" />
<glyph unicode="_" horiz-adv-x="985" d="M-20 -162q-9 58 18 113h975q0 -57 -19 -113h-974z" />
<glyph unicode="`" horiz-adv-x="1024" d="M555 1481q46 4 83 4h60q23 0 45 -4l193 -267q-37 -6 -76 -6t-76 6z" />
<glyph unicode="a" horiz-adv-x="1110" d="M184 309.5q0 151.5 44 285.5t130 239.5t214 170t296 64.5q151 0 250 -39l-104 -592q-20 -117 -35.5 -197.5t-15.5 -143.5t6 -97q-24 -4 -53 -4q-62 0 -82 4q-8 62 -8 105q0 31 4 51l15 72l9 40q-42 -101 -141 -188q-119 -105 -254 -105t-205 91.5t-70 243zM328 344 q0 -117 43 -183.5t122 -66.5t147.5 49.5t123.5 130.5q108 161 158 410l47 252q-55 14 -150.5 14t-186.5 -46t-158 -128q-146 -177 -146 -432z" />
<glyph unicode="b" horiz-adv-x="1142" d="M182 14l185 1053q20 117 34.5 201t14.5 135v65q0 15 -2 37q24 4 54 4h52q21 0 31 -2q2 -23 2 -40v-33q0 -89 -39 -297l-45 -258q57 82 138 136t213 54t219 -99.5t87 -266.5t-49 -299t-139 -227q-191 -202 -504 -202q-128 0 -252 39zM334 109q62 -17 146.5 -17t177 36 t164.5 108q161 158 161 423q0 137 -59.5 212t-163.5 75q-194 0 -301 -248q-39 -90 -62 -221z" />
<glyph unicode="c" horiz-adv-x="937" d="M199 389q0 125 41 248t118.5 218t191.5 154.5t238 59.5t238 -39q-5 -67 -39 -119q-103 39 -207 39t-188 -51t-140 -130q-110 -157 -110 -363q0 -312 301 -312q104 0 223 39q23 -53 23 -110q-73 -30 -156.5 -39t-105.5 -9q-221 0 -324.5 110t-103.5 304z" />
<glyph unicode="d" horiz-adv-x="1099" d="M188 309.5q0 151.5 44 285.5t130.5 239.5t214.5 170t295 64.5q57 0 117 -10q20 117 35.5 205t15.5 139v65q0 15 -2 37q24 4 55 4h51q21 0 32 -2q2 -23 2 -40v-33q0 -52 -9.5 -115.5t-15.5 -104t-12 -73.5l-125 -703q-20 -117 -35.5 -197.5t-15.5 -143.5t6 -97 q-37 -6 -71 -6t-64 6q-7 28 -7 60t2.5 55.5t6.5 50.5q9 63 20 102q-42 -101 -141 -188q-119 -105 -254 -105t-205 91.5t-70 243zM332 344q0 -117 43 -183.5t122 -66.5t147.5 49.5t123.5 130.5q108 161 158 410l47 252q-55 14 -150.5 14t-186.5 -46t-158 -128 q-146 -177 -146 -432z" />
<glyph unicode="e" horiz-adv-x="1003" d="M195 387q0 125 43 247t119.5 218t184 156.5t239.5 60.5t201 -66.5t69 -157.5t-43 -154.5t-119 -107.5q-138 -80 -402 -120l-149 -25v-28q0 -147 71.5 -231.5t214.5 -84.5t310 60q20 -46 20 -111q-99 -41 -202 -54.5t-183 -13.5t-158.5 33t-126.5 90q-89 104 -89 289z M356 553l115 18q207 33 322.5 92.5t115.5 165.5q0 55 -39 89t-113.5 34t-138 -33.5t-115.5 -88.5q-106 -114 -147 -277z" />
<glyph unicode="f" horiz-adv-x="653" d="M-180 -477q13 52 41 115q47 -19 99 -19t92 10.5t70 38.5q60 58 87 223l182 1039h-170q0 70 19 114h170l16 93q35 193 125 289t262 96q86 0 137 -23q-10 -42 -43 -115q-53 21 -101 21t-87 -12.5t-69 -42.5q-63 -66 -89 -220l-16 -86h272q0 -68 -18 -114h-273l-182 -1045 q-35 -205 -125 -295t-262 -90q-86 0 -137 23z" />
<glyph unicode="g" horiz-adv-x="1095" d="M84 -455q0 61 35 115q119 -37 227.5 -37t188 25.5t133.5 75.5q90 86 135 296l51 248q-42 -101 -141 -188q-119 -105 -254 -105t-205 91.5t-70 243t44 285.5t130 239.5t214 170t296 64.5q151 0 250 -39l-184 -1030q-47 -253 -188 -372q-149 -128 -427 -128q-131 0 -235 45 zM328 344q0 -117 44 -183.5t122 -66.5t146.5 49.5t123.5 130.5q108 161 158 410l47 252q-55 14 -150.5 14t-186.5 -46t-158 -128q-146 -177 -146 -432z" />
<glyph unicode="h" horiz-adv-x="1136" d="M180 0l187 1067q20 117 34.5 201t14.5 135v65q0 15 -2 37q24 4 54 4h52q21 0 31 -2q2 -23 2 -40v-33q0 -89 -39 -297l-49 -269q149 201 371 201q127 0 198.5 -67.5t71.5 -198.5q0 -62 -14 -144l-115 -659q-37 -6 -71 -6t-64 6l108 618q15 92 15 142q0 184 -185 184 q-210 0 -319 -243q-39 -87 -60 -209l-86 -492q-24 -4 -53 -4q-62 0 -82 4z" />
<glyph unicode="i" horiz-adv-x="542" d="M225 0l164 930h-127q0 55 19 114h262l-183 -1044q-24 -4 -54 -4q-59 0 -81 4zM385 1300l5 45q3 27 7 44.5t9.5 42t9.5 41.5q36 4 71 4q67 0 101 -4q-2 -16 -4 -41t-6 -42t-10.5 -44t-10.5 -46q-32 -4 -66 -4q-70 0 -106 4z" />
<glyph unicode="j" horiz-adv-x="538" d="M-176 -473q12 70 39 113q52 -21 129 -21q167 0 205 211l192 1100h-127q0 55 19 114h262l-211 -1196q-31 -170 -108 -259t-232 -89q-104 0 -168 27zM385 1300l5 45q3 27 7 44.5t9.5 42t9.5 41.5q36 4 71 4q67 0 101 -4q-2 -16 -4 -41t-6 -42t-10.5 -44t-10.5 -46 q-32 -4 -66 -4q-70 0 -106 4z" />
<glyph unicode="k" horiz-adv-x="974" d="M180 0l189 1067q20 117 34.5 201t14.5 135v65q0 15 -2 37q24 4 54 4h52q21 0 31 -2q2 -23 2 -40v-33q0 -89 -39 -297l-201 -1137q-24 -4 -53 -4q-62 0 -82 4zM502 539l321 383q49 61 62 122q40 6 76.5 6t70.5 -6q-12 -63 -92 -159l-289 -338l289 -547q-41 -6 -78 -6 t-76 6z" />
<glyph unicode="l" horiz-adv-x="567" d="M211 147q0 27 6 64l152 856q20 117 34.5 201t14.5 135v65q0 15 -2 37q24 4 54 4h52q21 0 31 -2q2 -23 2 -40v-33q0 -89 -39 -297l-160 -895q-6 -31 -6 -59t9.5 -46t23.5 -27q20 -14 67.5 -14t86.5 13q13 -37 13 -81q0 -13 -1 -26q-62 -20 -143 -20q-195 0 -195 165z" />
<glyph unicode="m" horiz-adv-x="1695" d="M180 0l107 610q20 117 35.5 198t15.5 143.5t-6 97.5q24 4 53 4q62 0 82 -4q6 -24 6 -78q0 -57 -8 -103q59 82 149.5 141.5t203 59.5t169.5 -59.5t68 -157.5q156 217 372 217q238 0 238 -266q0 -62 -14 -144l-115 -659q-24 -4 -53 -4q-62 0 -82 4l108 618q15 92 15 165 q0 161 -156 161q-186 0 -297 -244q-39 -86 -59 -208l-86 -492q-37 -6 -70.5 -6t-64.5 6l108 618q14 86 14 162q0 164 -155 164q-186 0 -297 -244q-39 -86 -60 -208l-86 -492q-24 -4 -53 -4q-62 0 -82 4z" />
<glyph unicode="n" horiz-adv-x="1163" d="M207 0l106 610q20 117 36 198t16 141t-7 100q24 4 53 4q61 0 83 -4q6 -24 6 -81q0 -92 -27 -192q42 100 143 189q120 104 249.5 104t198.5 -67.5t69 -198.5q0 -57 -15 -144l-114 -659q-36 -6 -70 -6t-66 6l109 618q14 86 14 164t-47 120t-121 42q-142 0 -262 -177 q-113 -167 -155 -407l-64 -360q-24 -4 -53 -4q-62 0 -82 4z" />
<glyph unicode="o" horiz-adv-x="1140" d="M199 373q0 106 33.5 228t104.5 226.5t180.5 173t271 68.5t257 -101.5t95.5 -295.5q0 -106 -34 -228t-104.5 -226.5t-180 -173.5t-271.5 -69t-257 101.5t-95 296.5zM342 375q0 -135 62.5 -208t173.5 -73q201 0 319 195q100 165 100 381q0 135 -62.5 207.5t-172.5 72.5 q-201 0 -320 -194q-100 -164 -100 -381z" />
<glyph unicode="p" horiz-adv-x="1142" d="M92 -483l195 1093q23 117 37 198t14 143.5t-6 97.5q24 4 53 4q62 0 82 -4q6 -24 6 -78.5t-8 -96.5q59 82 141 138.5t214 56.5t219 -99.5t87 -266.5t-49 -299t-139 -227q-191 -202 -504 -202q-34 0 -125 11l-80 -469q-20 -4 -51 -4q-62 0 -86 4zM334 109q62 -17 146.5 -17 t177 36t164.5 108q161 158 161 423q0 137 -60.5 212t-162.5 75q-194 0 -301 -248q-39 -90 -62 -221z" />
<glyph unicode="q" horiz-adv-x="1103" d="M188 309.5q0 151.5 44 285.5t130.5 239.5t214.5 170t295 64.5q141 0 252 -37l-266 -1515q-20 -4 -50 -4q-63 0 -87 4l135 749q-42 -101 -140 -187q-118 -104 -253 -104t-205 91.5t-70 243zM332 344q0 -117 43 -183.5t122 -66.5t147.5 49.5t123.5 130.5q108 161 158 410 l47 252q-49 14 -147.5 14t-189.5 -46t-158 -128q-146 -177 -146 -432z" />
<glyph unicode="r" horiz-adv-x="704" d="M180 0l107 610q20 117 35.5 198t15.5 143.5t-6 97.5q24 4 53 4q62 0 82 -4q6 -24 6 -78q0 -55 -8 -101q71 84 124 117q101 62 208 62q47 0 61 -7q0 -74 -33 -129q-18 9 -65 9t-103.5 -21.5t-105.5 -70.5q-108 -106 -145 -314l-91 -516q-24 -4 -53 -4q-62 0 -82 4z" />
<glyph unicode="s" horiz-adv-x="870" d="M98 27q10 70 41 120q60 -30 143 -39.5t113 -9.5q135 0 210 45t75 158q0 82 -44 119t-124 67l-63 25q-91 35 -127 71q-78 75 -78 198.5t106.5 205.5t294.5 82q96 0 167 -21.5t99 -37.5q-19 -58 -51 -113q-110 53 -231 53q-242 0 -242 -168q0 -61 36 -97t128 -73l20 -8 q122 -48 164 -82q92 -75 92 -179.5t-34.5 -172.5t-94.5 -111q-116 -84 -307 -84t-293 52z" />
<glyph unicode="t" horiz-adv-x="669" d="M205 930q0 69 18 114h170q25 132 25 252v23q73 22 133 22q2 -23 2 -40v-33q0 -77 -27 -224h271q0 -69 -19 -114h-268l-121 -680q-4 -14 -4 -28v-23q0 -68 37 -85.5t93.5 -17.5t115.5 21q5 -35 5 -75q0 -20 -1 -42q-78 -23 -176 -23q-213 0 -213 195q0 31 6 72l123 686 h-170z" />
<glyph unicode="u" horiz-adv-x="1136" d="M219 242q0 61 14 143l115 659q30 5 56 5q62 0 79 -5l-108 -618q-15 -92 -15 -143q0 -98 47.5 -140.5t120.5 -42.5q140 0 262 178q114 164 156 406l64 360q30 5 55 5q63 0 80 -5l-107 -610q-20 -117 -35.5 -197.5t-15.5 -144t6 -96.5q-24 -4 -53 -4q-62 0 -82 4 q-6 33 -6 85q0 96 27 187q-40 -97 -144 -188q-119 -105 -249 -105t-198.5 68t-68.5 199z" />
<glyph unicode="v" horiz-adv-x="976" d="M217 1044q45 8 81 8t62 -8l150 -892l385 741q41 73 41 143v8q41 6 78.5 6t72.5 -6v-8q0 -62 -53 -157l-485 -879q-35 -6 -59 -6q-59 0 -80 6z" />
<glyph unicode="w" horiz-adv-x="1499" d="M238 1044q40 6 76.5 6t70.5 -6l119 -876l346 876q25 7 63 6.5t66 -6.5l133 -876l301 741q31 77 31 127v8q32 7 70 6.5t75 -6.5v-8q0 -44 -51 -155l-383 -881q-35 -6 -61 -6q-59 0 -80 6l-135 817l-328 -817q-35 -6 -63 -6q-59 0 -80 6z" />
<glyph unicode="x" horiz-adv-x="935" d="M76 0v8q2 41 16 79t58 93l292 369l-170 495q43 6 78.5 6t63.5 -6l166 -499l-301 -398q-61 -82 -64 -139v-8q-37 -6 -74.5 -6t-64.5 6zM596 547l244 338q63 87 63 151v8q31 7 70.5 7t64.5 -7v-8q-2 -90 -77 -194l-222 -287l193 -555q-43 -6 -79 -6t-67 6z" />
<glyph unicode="y" horiz-adv-x="960" d="M39 -487q0 77 35 114q47 -14 89 -14t69.5 9t57.5 39q57 58 134 228l47 107q-60 0 -80 4l-170 1044q31 7 70 7t76 -7l143 -964l367 813q41 88 41 143v8q39 6 75.5 6t69.5 -6v-8q0 -54 -49 -157l-508 -1098q-109 -234 -248 -275q-43 -12 -100.5 -12t-118.5 19z" />
<glyph unicode="z" horiz-adv-x="890" d="M86 33l696 897h-497q0 69 18 114h703l4 -26l-697 -903h527q0 -70 -19 -115h-733z" />
<glyph unicode="{" horiz-adv-x="770" d="M197 598q129 67 183 137q57 73 85 234l31 180q33 204 122 293q95 96 281 96l43 -2q0 -69 -20 -115q-151 0 -208 -70q-49 -62 -83 -255l-17 -88q-35 -199 -84 -281q-44 -76 -157 -131q59 -41 89 -87t30 -109q0 -73 -23 -220l-14 -84q-21 -111 -21 -184.5t43 -107 t154 -33.5q0 -63 -21 -115q-168 0 -242.5 63.5t-74.5 200.5q0 46 14 137l29 166q12 70 12 139q0 132 -151 236z" />
<glyph unicode="|" horiz-adv-x="669" d="M213 -344l340 1933q32 4 74 4q45 0 65 -4l-340 -1933q-24 -4 -57 -4q-58 0 -82 4z" />
<glyph unicode="}" horiz-adv-x="770" d="M33 -346q0 69 20 115q150 0 207 70q50 62 84 255l16 88q35 196 84 281q27 45 65 73.5t93 57.5q-59 41 -89 87t-30 109q0 73 23 220l14 84q21 111 21 184.5t-43 107t-154 33.5q0 63 21 115q168 0 242.5 -63.5t74.5 -200.5q0 -48 -14 -137l-29 -166q-12 -72 -12 -141 q0 -131 151 -234q-129 -67 -183 -137q-57 -73 -85 -234l-31 -180q-33 -204 -121 -293q-96 -96 -282 -96z" />
<glyph unicode="~" horiz-adv-x="929" d="M186 815q41 45 103 74q99 47 159 47t101 -12.5t83 -28.5q108 -41 167 -41q89 0 184 82q43 -51 49 -109q-126 -100 -254 -100q-67 0 -172 41t-162 41q-103 0 -202 -88q-44 34 -56 94z" />
<glyph unicode="&#xa1;" horiz-adv-x="550" d="M121 -410l192 1053q32 4 68 4q35 0 63 -4l-178 -1053q-32 -4 -67 -4q-38 0 -78 4zM350 889q0 63 11.5 107t17.5 67q39 6 86 6t72 -6q0 -68 -29 -174q-37 -6 -81 -6t-77 6z" />
<glyph unicode="&#xa2;" d="M336 389q0 243 130 428q141 202 374 242l45 248q57 12 116 0l-43 -238q85 -3 205 -39q-5 -71 -39 -119q-103 39 -207 39t-188 -51t-139 -130q-111 -159 -111 -363q0 -312 301 -312q102 0 224 39q22 -51 22 -110q-70 -26 -152.5 -37t-105.5 -11l-37 -217q-52 -13 -117 0 l39 226q-317 52 -317 405z" />
<glyph unicode="&#xa3;" d="M225 20l56 48q223 193 223 491q0 42 -4 90h-178q0 57 20 115h145q-10 112 -10 199t27.5 183.5t87.5 169.5q132 159 377 159q178 0 313 -62q-13 -50 -53 -119q-123 58 -260 58q-346 0 -346 -416q0 -31 12 -172h430q0 -60 -21 -115h-397l2 -59q0 -117 -30.5 -234.5 t-135.5 -226.5h621q-12 -97 -23 -129h-852z" />
<glyph unicode="&#xa4;" d="M211 301l166 164q-82 111 -82 255.5t88 262.5l-172 172q30 65 94 90l170 -172q115 80 254 80q145 0 256 -82l174 174q57 -32 92 -86l-174 -176q88 -118 88 -262.5t-86 -255.5l168 -168q-30 -54 -84 -92l-174 170q-109 -84 -260 -84t-260 84l-168 -166q-67 31 -90 92z M428 721q0 -131 85 -220q87 -91 216 -91q128 0 217 91q86 88 86 220q0 134 -86 222q-89 91 -217 91q-129 0 -216 -91q-85 -89 -85 -222z" />
<glyph unicode="&#xa5;" d="M197 354q-6 53 20 119h397l31 174h-397q-6 53 20 119h338l-268 707q24 4 60 4q68 0 98 -4l239 -670l434 670q32 4 68 4q68 0 92 -4l-471 -707h354q6 -44 -20 -119h-408l-30 -174h407q6 -44 -20 -119h-408l-61 -354q-32 -4 -64 -4q-56 0 -78 4l62 354h-395z" />
<glyph unicode="&#xa6;" horiz-adv-x="321" d="M31 -344l119 680q28 4 58 4q49 0 79 -4l-119 -680q-28 -4 -58 -4q-55 0 -79 4zM250 909l119 680q28 4 58 4q51 0 79 -4l-119 -680q-28 -4 -58 -4q-55 0 -79 4z" />
<glyph unicode="&#xa7;" horiz-adv-x="1079" d="M201 31q14 62 49 110q51 -20 135 -38.5t144.5 -18.5t113.5 7t99 29q110 51 110 156q0 112 -154 162l-276 97q-78 29 -125 69.5t-47 123.5t44 150.5t103 127.5q-49 61 -49 141t37 143.5t97 104.5q116 78 304 78q192 0 324 -58q-15 -54 -53 -108q-135 55 -275 55 q-195 0 -269 -95q-28 -36 -28 -82t13.5 -73t37.5 -45q31 -24 111 -55l215 -80q180 -62 180 -192.5t-131 -268.5q80 -68 80 -162t-39 -155.5t-102 -101.5q-123 -79 -301 -79q-144 0 -284 35q-40 10 -64 23zM387 762q0 -53 34 -76.5t93 -46.5l297 -113q92 92 92 179 q0 51 -34.5 75.5t-92.5 46.5l-227 84q-41 15 -66 29q-96 -91 -96 -178z" />
<glyph unicode="&#xa8;" horiz-adv-x="1024" d="M449 1255q5 105 30 175q39 6 82 6t84 -6q-5 -109 -31 -175q-41 -6 -83.5 -6t-81.5 6zM840 1255q5 105 30 175q39 6 82 6t84 -6q-5 -107 -30 -175q-41 -6 -84 -6t-82 6z" />
<glyph unicode="&#xa9;" horiz-adv-x="1769" d="M242 735q0 162 55 302.5t154.5 241.5t239.5 159.5t310 58.5q339 0 551 -217q209 -215 209 -545t-209 -543q-100 -102 -240.5 -160.5t-310.5 -58.5t-310 58.5t-239 160.5q-210 213 -210 543zM381 735q0 -272 166 -453q173 -188 454 -188q282 0 455 188q166 181 166 453 q0 273 -166 454q-172 187 -455 187q-282 0 -454 -187q-166 -181 -166 -454zM629 729q0 197 109 321q111 126 290 126q104 0 203 -29q-8 -68 -29 -109q-82 23 -168 23q-139 0 -206.5 -90t-67.5 -243t73.5 -234.5t206.5 -81.5q88 0 164 39q24 -43 43 -103q-100 -49 -204.5 -49 t-179.5 30.5t-127 88.5q-107 118 -107 311z" />
<glyph unicode="&#xaa;" horiz-adv-x="1024" d="M293 860q0 121 36 227.5t105 191.5q150 187 408 187q130 0 209 -34l-101 -564q-20 -106 -20 -157t4 -93q-28 -4 -68 -4q-41 0 -61 4q-6 43 -6 71q0 65 12 114q-58 -93 -105 -131q-90 -74 -193.5 -74t-161.5 70.5t-58 191.5zM430 899q0 -194 119 -194q110 0 202 137 q87 131 121 315l37 195q-35 8 -106.5 8t-141 -35t-121.5 -97q-110 -135 -110 -329z" />
<glyph unicode="&#xab;" horiz-adv-x="1099" d="M174 557l428 442q32 7 81.5 7t90.5 -7l-428 -450l270 -455q-41 -6 -79.5 -6t-75.5 6zM614 557l428 442q32 7 81.5 7t90.5 -7l-428 -450l270 -455q-41 -6 -79.5 -6t-75.5 6z" />
<glyph unicode="&#xac;" d="M287 674q0 51 4 71h839v-557q-20 -4 -67 -4q-52 0 -72 4v418h-700q-4 20 -4 68z" />
<glyph unicode="&#xad;" horiz-adv-x="722" d="M195 514q4 72 24 139h520q0 -31 -10 -71q-4 -16 -7 -37t-7 -31h-520z" />
<glyph unicode="&#xae;" horiz-adv-x="1769" d="M242 735q0 162 55 302.5t154.5 241.5t239.5 159.5t310 58.5q339 0 551 -217q209 -215 209 -545t-209 -543q-100 -102 -240.5 -160.5t-310.5 -58.5t-310 58.5t-239 160.5q-210 213 -210 543zM381 735q0 -272 166 -453q173 -188 454 -188q282 0 455 188q166 181 166 453 q0 273 -166 454q-172 187 -455 187q-282 0 -454 -187q-166 -181 -166 -454zM766 352v791q94 12 175 12t136.5 -11t101.5 -39q103 -63 103 -192q0 -80 -54 -149q-41 -53 -106 -82l240 -328q-29 -4 -46 -4h-54t-37 2l-271 369l47 18q160 64 160 168q0 70 -54 105t-114.5 35 t-105.5 -7v-688q-20 -4 -62 -4q-39 0 -59 4z" />
<glyph unicode="&#xaf;" horiz-adv-x="1024" d="M410 1278q0 73 18 125h561q0 -76 -18 -125h-561z" />
<glyph unicode="&#xb0;" horiz-adv-x="745" d="M242 1196q0 122 87 207q86 84 206 84q119 0 205 -84q87 -85 87 -207t-87 -207q-86 -84 -205 -84q-120 0 -206 84q-87 85 -87 207zM362 1196q0 -78 48.5 -129t124.5 -51t124 51t48 129t-48.5 129t-123.5 51q-76 0 -124.5 -51t-48.5 -129z" />
<glyph unicode="&#xb1;" d="M217 4q0 68 22 140h873q0 -68 -23 -140h-872zM295 653q0 73 18 129h357l67 381q28 4 55 4q50 0 82 -4l-67 -381h350q0 -74 -18 -129h-355l-67 -381q-16 -4 -35 -4h-61t-41 4l67 381h-352z" />
<glyph unicode="&#xb2;" horiz-adv-x="921" d="M219 643l336 307q35 33 65.5 61.5t53.5 59.5q51 67 51 141q0 125 -133 125q-98 0 -195 -47q-25 62 -28 103q130 55 244 55t181.5 -56.5t67.5 -162.5q0 -139 -135 -269q-41 -40 -88 -83l-152 -136h344q3 -51 -20 -112h-588z" />
<glyph unicode="&#xb3;" horiz-adv-x="921" d="M244 647q9 59 43 105q109 -37 172 -37t102 8t69 29q66 49 66 147q0 66 -41 103.5t-104.5 37.5t-95.5 -4l-6 13l245 292h-309q0 51 18 107h486l6 -21l-254 -303q140 -17 181 -138q12 -34 12 -88t-29 -113.5t-76 -99.5q-95 -81 -242 -81q-138 0 -243 43z" />
<glyph unicode="&#xb4;" horiz-adv-x="1024" d="M569 1214l193 267q23 4 46 4h47q51 0 95 -4l-229 -267q-37 -6 -76 -6t-76 6z" />
<glyph unicode="&#xb5;" horiz-adv-x="1183" d="M78 -483l254 1527q30 5 69 5q48 0 68 -5l-92 -548q-12 -80 -12 -148q0 -121 49 -186.5t170 -65.5q106 0 210 83q125 100 150 257l100 608q30 5 56 5q60 0 82 -5l-174 -1044q-24 -4 -64 -4h-32q-19 0 -29 4q0 54 10 131q-136 -156 -328 -156q-86 0 -155.5 37t-98.5 97 l-96 -592q-24 -4 -70 -4q-47 0 -67 4z" />
<glyph unicode="&#xb6;" horiz-adv-x="1114" d="M215 1016q0 236 146.5 353.5t426.5 117.5h48q26 0 51 -2l-260 -1497q-81 0 -129 12l114 641q-275 21 -365 214q-32 69 -32 161zM799 -12l260 1497q77 0 127 -12l-258 -1473q-58 -12 -129 -12z" />
<glyph unicode="&#xb7;" horiz-adv-x="419" d="M205 479q0 71 28 174q43 6 88 6t86 -6q0 -67 -28 -174q-53 -6 -100 -6t-74 6z" />
<glyph unicode="&#xb8;" horiz-adv-x="1024" d="M272 -455q12 66 37 101q77 -31 116.5 -31t64 2t44.5 11q48 23 48 79q0 80 -125 80q-28 0 -103 -12l-6 8l137 262h111l-92 -170q10 2 35 2q86 0 130 -47t44 -109q0 -163 -166 -203q-47 -12 -104 -12q-96 0 -171 39z" />
<glyph unicode="&#xb9;" horiz-adv-x="921" d="M285 629q0 66 22 110h199l94 545l-223 -90q-25 32 -31 100l389 162h31l-125 -717h199q-4 -55 -21 -110h-534z" />
<glyph unicode="&#xba;" horiz-adv-x="1024" d="M287 918q0 201 107 359q132 193 360 193q143 0 220 -81.5t77 -237.5q0 -199 -107 -359q-129 -194 -364 -194q-133 0 -213 82t-80 238zM424 920q0 -109 46 -162t128 -53t142.5 41.5t99.5 107.5q75 127 75 295q0 104 -47 159.5t-129 55.5t-142 -42t-98 -108 q-75 -129 -75 -294z" />
<glyph unicode="&#xbb;" horiz-adv-x="1161" d="M111 94l432 457l-275 448q86 13 156 0l287 -462l-435 -443q-27 -6 -77 -6t-88 6zM551 94l432 457l-275 448q86 13 156 0l287 -462l-435 -443q-27 -6 -77 -6t-88 6z" />
<glyph unicode="&#xbc;" horiz-adv-x="2150" d="M285 629q0 66 22 110h199l94 545l-223 -90q-25 32 -31 100l389 162h31l-125 -717h199q-4 -55 -21 -110h-534zM486 0l1243 1448q32 4 70 4q56 0 98 -4l-1241 -1448q-23 -4 -41 -4h-77.5t-51.5 4zM1259 188l441 664q53 -10 108 -37l-344 -529h234l32 176q73 14 119 0 l-30 -176h100q10 -62 -21 -114h-100l-31 -172h-49q-27 0 -67 4l28 168h-411z" />
<glyph unicode="&#xbd;" horiz-adv-x="2150" d="M285 629q0 66 22 110h199l94 545l-223 -90q-25 32 -31 100l389 162h31l-125 -717h199q-4 -55 -21 -110h-534zM469 0l1243 1448q32 4 70 4q56 0 98 -4l-1241 -1448q-23 -4 -41 -4h-77.5t-51.5 4zM1302 18l336 307q35 33 65.5 61.5t53.5 59.5q51 67 51 141q0 125 -133 125 q-98 0 -195 -47q-25 62 -28 103q130 55 244 55t181.5 -56.5t67.5 -162.5q0 -139 -135 -269q-41 -40 -88 -83l-152 -136h344q3 -51 -20 -112h-588z" />
<glyph unicode="&#xbe;" horiz-adv-x="2150" d="M273 647q9 59 43 105q109 -37 172 -37t102 8t69 29q66 49 66 147q0 66 -41 103.5t-104.5 37.5t-95.5 -4l-6 13l245 292h-309q0 51 18 107h486l6 -21l-254 -303q140 -17 181 -138q12 -34 12 -88t-29 -113.5t-76 -99.5q-95 -81 -242 -81q-138 0 -243 43zM469 0l1243 1448 q32 4 70 4q56 0 98 -4l-1241 -1448q-23 -4 -41 -4h-77.5t-51.5 4zM1245 188l441 664q53 -10 108 -37l-344 -529h234l32 176q73 14 119 0l-30 -176h100q10 -62 -21 -114h-100l-31 -172h-49q-27 0 -67 4l28 168h-411z" />
<glyph unicode="&#xbf;" horiz-adv-x="944" d="M195 -70q0 176 137 314q121 124 299 174l39 229h139l-55 -317l-72 -23q-230 -78 -302 -235q-26 -56 -26 -125q0 -113 76 -171.5t185.5 -58.5t169 14.5t118.5 35.5q6 -20 7 -47t5 -58l3 -22q-165 -52 -294.5 -52t-204.5 29t-125 76q-99 93 -99 237zM692 889q9 108 35 174 q39 6 84 6t86 -6q-5 -114 -31 -174q-41 -6 -92.5 -6t-81.5 6z" />
<glyph unicode="&#xc0;" horiz-adv-x="1173" d="M88 0l657 1473q32 4 77 4q80 0 102 -4l217 -1473q-20 -4 -58 -4q-68 0 -96 4l-51 385h-528l-166 -385q-32 -4 -65 -4q-65 0 -89 4zM463 516h455l-107 803zM555 1821q49 6 101 6t95 -6l189 -228q-30 -6 -78.5 -6t-81.5 6z" />
<glyph unicode="&#xc1;" horiz-adv-x="1173" d="M88 0l657 1473q32 4 77 4q80 0 102 -4l217 -1473q-20 -4 -58 -4q-68 0 -96 4l-51 385h-528l-166 -385q-32 -4 -65 -4q-65 0 -89 4zM463 516h455l-107 803zM705 1593l266 228q49 6 87 6q83 0 118 -6l-303 -228q-41 -6 -88.5 -6t-79.5 6z" />
<glyph unicode="&#xc2;" horiz-adv-x="1173" d="M88 0l657 1473q32 4 77 4q80 0 102 -4l217 -1473q-20 -4 -58 -4q-68 0 -96 4l-51 385h-528l-166 -385q-32 -4 -65 -4q-65 0 -89 4zM463 516h455l-107 803zM520 1593l273 228q27 6 75 6t84 -6l177 -228q-37 -6 -72 -6t-78 6l-113 140l-172 -142q-25 -4 -49 -4h-41 q-58 0 -84 6z" />
<glyph unicode="&#xc3;" horiz-adv-x="1173" d="M88 0l657 1473q32 4 77 4q80 0 102 -4l217 -1473q-20 -4 -58 -4q-68 0 -96 4l-51 385h-528l-166 -385q-32 -4 -65 -4q-65 0 -89 4zM463 516h455l-107 803zM516 1735q92 92 187 92q64 0 123 -25.5t93 -37t72 -11.5t62.5 11.5t62.5 43.5q42 -59 48 -86q-95 -90 -189 -90 q-62 0 -121 25.5t-92 37t-70.5 11.5t-64 -14t-61.5 -41q-35 35 -50 84z" />
<glyph unicode="&#xc4;" horiz-adv-x="1173" d="M88 0l657 1473q32 4 77 4q80 0 102 -4l217 -1473q-20 -4 -58 -4q-68 0 -96 4l-51 385h-528l-166 -385q-32 -4 -65 -4q-65 0 -89 4zM463 516h455l-107 803zM536 1593q0 92 31 183q49 6 95 6t83 -6q0 -96 -30 -183q-43 -6 -89.5 -6t-89.5 6zM964 1593q0 72 31 183 q43 6 89 6t89 -6q0 -95 -30 -183q-49 -6 -95.5 -6t-83.5 6z" />
<glyph unicode="&#xc5;" horiz-adv-x="1173" d="M88 0l655 1468q-116 47 -116 189q0 106 75 185q72 75 182.5 75t164 -60.5t53.5 -145.5t-48 -150.5t-130 -92.5l217 -1468q-20 -4 -58 -4q-68 0 -96 4l-51 385h-528l-166 -385q-32 -4 -65 -4q-65 0 -89 4zM463 516h455l-107 803zM739 1677.5q0 -59.5 27 -94.5t87 -35 t97 45t37 103q0 127 -108 127q-66 0 -103 -43t-37 -102.5z" />
<glyph unicode="&#xc6;" horiz-adv-x="1738" d="M0 0l1044 1473h859q0 -44 -7 -66l-16 -64h-614l-88 -497h493q0 -63 -22 -129h-494l-102 -588h630q-2 -12 -3 -29.5t-4 -32.5l-7 -35q-4 -20 -8 -32h-774l65 377h-520l-268 -377q-43 -6 -85 -6t-79 6zM526 506h449l149 848h-10z" />
<glyph unicode="&#xc7;" horiz-adv-x="1187" d="M248 549q0 174 46 344t142 304t243.5 217t352.5 83q170 0 309 -49q-14 -67 -47 -121q-122 43 -276 43t-272.5 -67.5t-195.5 -180.5q-151 -220 -151 -563q0 -223 106.5 -340t295 -117t317.5 68q31 -47 37 -117q-129 -67 -354 -78l-58 -100q10 2 17 2h20q90 0 135.5 -47 t45.5 -109q0 -163 -173 -203q-49 -12 -108 -12q-102 0 -180 39q12 66 39 101q84 -31 125 -31t66.5 2t47.5 11q47 21 47 79q0 80 -131 80q-34 0 -106 -12l-8 8l108 199q-207 25 -323.5 169t-116.5 398z" />
<glyph unicode="&#xc8;" horiz-adv-x="1062" d="M211 0l258 1473h758q0 -66 -23 -130h-614l-88 -497h493q0 -72 -22 -129h-494l-102 -588h633q-4 -70 -25 -129h-774zM613 1821q49 6 101 6t95 -6l189 -228q-30 -6 -78.5 -6t-81.5 6z" />
<glyph unicode="&#xc9;" horiz-adv-x="1062" d="M211 0l258 1473h758q0 -66 -23 -130h-614l-88 -497h493q0 -72 -22 -129h-494l-102 -588h633q-4 -70 -25 -129h-774zM752 1593l266 228q49 6 87 6q83 0 118 -6l-303 -228q-41 -6 -88.5 -6t-79.5 6z" />
<glyph unicode="&#xca;" horiz-adv-x="1062" d="M211 0l258 1473h758q0 -66 -23 -130h-614l-88 -497h493q0 -72 -22 -129h-494l-102 -588h633q-4 -70 -25 -129h-774zM540 1593l273 228q27 6 75 6t84 -6l177 -228q-37 -6 -72 -6t-78 6l-113 140l-172 -142q-25 -4 -49 -4h-41q-58 0 -84 6z" />
<glyph unicode="&#xcb;" horiz-adv-x="1062" d="M211 0l258 1473h758q0 -66 -23 -130h-614l-88 -497h493q0 -72 -22 -129h-494l-102 -588h633q-4 -70 -25 -129h-774zM561 1593q0 92 31 183q49 6 95 6t83 -6q0 -96 -30 -183q-43 -6 -89.5 -6t-89.5 6zM989 1593q0 72 31 183q43 6 89 6t89 -6q0 -95 -30 -183 q-49 -6 -95.5 -6t-83.5 6z" />
<glyph unicode="&#xcc;" horiz-adv-x="565" d="M213 0l258 1473q28 4 61 4q52 0 80 -4l-258 -1473q-32 -4 -62 -4q-59 0 -79 4zM285 1821q49 6 101 6t95 -6l189 -228q-30 -6 -78.5 -6t-81.5 6z" />
<glyph unicode="&#xcd;" horiz-adv-x="565" d="M213 0l258 1473q28 4 61 4q52 0 80 -4l-258 -1473q-32 -4 -62 -4q-59 0 -79 4zM389 1593l266 228q49 6 87 6q83 0 118 -6l-303 -228q-41 -6 -88.5 -6t-79.5 6z" />
<glyph unicode="&#xce;" horiz-adv-x="565" d="M213 0l258 1473q28 4 61 4q52 0 80 -4l-258 -1473q-32 -4 -62 -4q-59 0 -79 4zM243 1593l273 228q27 6 75 6t84 -6l177 -228q-37 -6 -72 -6t-78 6l-113 140l-172 -142q-25 -4 -49 -4h-41q-58 0 -84 6z" />
<glyph unicode="&#xcf;" horiz-adv-x="565" d="M213 0l258 1473q28 4 61 4q52 0 80 -4l-258 -1473q-32 -4 -62 -4q-59 0 -79 4zM241 1593q0 92 31 183q49 6 95 6t83 -6q0 -96 -30 -183q-43 -6 -89.5 -6t-89.5 6zM669 1593q0 72 31 183q43 6 89 6t89 -6q0 -95 -30 -183q-49 -6 -95.5 -6t-83.5 6z" />
<glyph unicode="&#xd0;" horiz-adv-x="1421" d="M207 723q0 57 18 113h160l113 637q159 22 320 22t284 -45t198 -126q136 -148 136 -431q0 -172 -48.5 -337t-149.5 -294t-259 -208t-379 -79q-210 0 -360 25l127 723h-160zM403 123q84 -12 232 -12t272.5 57t208.5 158q172 208 172 538q0 252 -100 370q-115 134 -389 134 q-99 0 -178 -14l-93 -518h412q0 -64 -18 -113h-414z" />
<glyph unicode="&#xd1;" horiz-adv-x="1376" d="M211 0l258 1473q28 4 63 4q60 0 84 -4l455 -1240l215 1240q24 4 55 4q58 0 82 -4l-256 -1473q-24 -4 -59 -4q-66 0 -90 4l-455 1233l-213 -1233q-32 -4 -71 -4q-48 0 -68 4zM647 1735q92 92 187 92q64 0 123 -25.5t93 -37t72 -11.5t62.5 11.5t62.5 43.5q42 -59 48 -86 q-95 -90 -189 -90q-62 0 -121 25.5t-92 37t-70.5 11.5t-64 -14t-61.5 -41q-35 35 -50 84z" />
<glyph unicode="&#xd2;" horiz-adv-x="1441" d="M248 492.5q0 220.5 53 400.5t149.5 314t231.5 212t277.5 78t230.5 -42t146 -115q116 -143 116 -364.5t-53 -403t-150.5 -313.5t-233.5 -208t-276.5 -76t-227.5 40t-145 112q-118 145 -118 365.5zM395 524q0 -193 82 -306.5t260 -113.5q121 0 224.5 67t180.5 181 q163 240 163 596q0 297 -187 388q-65 32 -173.5 32t-213 -65.5t-179.5 -178.5q-157 -238 -157 -600zM785 1821q49 6 101 6t95 -6l189 -228q-30 -6 -78.5 -6t-81.5 6z" />
<glyph unicode="&#xd3;" horiz-adv-x="1441" d="M248 492.5q0 220.5 53 400.5t149.5 314t231.5 212t277.5 78t230.5 -42t146 -115q116 -143 116 -364.5t-53 -403t-150.5 -313.5t-233.5 -208t-276.5 -76t-227.5 40t-145 112q-118 145 -118 365.5zM395 524q0 -193 82 -306.5t260 -113.5q121 0 224.5 67t180.5 181 q163 240 163 596q0 297 -187 388q-65 32 -173.5 32t-213 -65.5t-179.5 -178.5q-157 -238 -157 -600zM830 1593l266 228q49 6 87 6q83 0 118 -6l-303 -228q-41 -6 -88.5 -6t-79.5 6z" />
<glyph unicode="&#xd4;" horiz-adv-x="1441" d="M248 492.5q0 220.5 53 400.5t149.5 314t231.5 212t277.5 78t230.5 -42t146 -115q116 -143 116 -364.5t-53 -403t-150.5 -313.5t-233.5 -208t-276.5 -76t-227.5 40t-145 112q-118 145 -118 365.5zM395 524q0 -193 82 -306.5t260 -113.5q121 0 224.5 67t180.5 181 q163 240 163 596q0 297 -187 388q-65 32 -173.5 32t-213 -65.5t-179.5 -178.5q-157 -238 -157 -600zM661 1593l273 228q27 6 75 6t84 -6l177 -228q-37 -6 -72 -6t-78 6l-113 140l-172 -142q-25 -4 -49 -4h-41q-58 0 -84 6z" />
<glyph unicode="&#xd5;" horiz-adv-x="1441" d="M248 492.5q0 220.5 53 400.5t149.5 314t231.5 212t277.5 78t230.5 -42t146 -115q116 -143 116 -364.5t-53 -403t-150.5 -313.5t-233.5 -208t-276.5 -76t-227.5 40t-145 112q-118 145 -118 365.5zM395 524q0 -193 82 -306.5t260 -113.5q121 0 224.5 67t180.5 181 q163 240 163 596q0 297 -187 388q-65 32 -173.5 32t-213 -65.5t-179.5 -178.5q-157 -238 -157 -600zM696 1735q92 92 187 92q64 0 123 -25.5t93 -37t72 -11.5t62.5 11.5t62.5 43.5q42 -59 48 -86q-95 -90 -189 -90q-62 0 -121 25.5t-92 37t-70.5 11.5t-64 -14t-61.5 -41 q-35 35 -50 84z" />
<glyph unicode="&#xd6;" horiz-adv-x="1441" d="M248 492.5q0 220.5 53 400.5t149.5 314t231.5 212t277.5 78t230.5 -42t146 -115q116 -143 116 -364.5t-53 -403t-150.5 -313.5t-233.5 -208t-276.5 -76t-227.5 40t-145 112q-118 145 -118 365.5zM395 524q0 -193 82 -306.5t260 -113.5q121 0 224.5 67t180.5 181 q163 240 163 596q0 297 -187 388q-65 32 -173.5 32t-213 -65.5t-179.5 -178.5q-157 -238 -157 -600zM692 1593q0 92 31 183q49 6 95 6t83 -6q0 -96 -30 -183q-43 -6 -89.5 -6t-89.5 6zM1120 1593q0 72 31 183q43 6 89 6t89 -6q0 -95 -30 -183q-49 -6 -95.5 -6t-83.5 6z" />
<glyph unicode="&#xd7;" d="M305 483l311 265l-210 256q47 49 110 94l211 -256l309 262q57 -57 88 -109l-307 -262l211 -256q-49 -55 -110 -94l-213 256l-312 -264q-48 41 -88 108z" />
<glyph unicode="&#xd8;" horiz-adv-x="1441" d="M184 -29l152 195q-88 137 -88 342t53 385t149.5 314t231.5 212t310 78t296 -108l76 98q37 6 77 6t75 -6l-150 -191q86 -140 86 -341t-53 -382.5t-150.5 -313.5t-233.5 -208t-308.5 -76t-290.5 101l-82 -105q-37 -6 -77 -6t-73 6zM395 524q0 -139 39 -231l766 983 q-88 92 -226 92t-242.5 -65.5t-179.5 -178.5q-157 -238 -157 -600zM502 188q84 -84 220 -84t239.5 67t180.5 181q163 240 163 596q0 125 -37 221z" />
<glyph unicode="&#xd9;" horiz-adv-x="1351" d="M270 369q0 74 23 196l160 908q28 4 62 4q53 0 81 -4l-156 -889q-22 -134 -22 -217q0 -141 63.5 -198.5t188 -57.5t195.5 31.5t120 91.5q88 110 131 350l156 889q28 4 59 4q56 0 84 -4l-164 -930q-52 -286 -182 -421q-141 -147 -399 -147q-399 0 -400 394zM697 1821 q49 6 101 6t95 -6l189 -228q-30 -6 -78.5 -6t-81.5 6z" />
<glyph unicode="&#xda;" horiz-adv-x="1351" d="M270 369q0 74 23 196l160 908q28 4 62 4q53 0 81 -4l-156 -889q-22 -134 -22 -217q0 -141 63.5 -198.5t188 -57.5t195.5 31.5t120 91.5q88 110 131 350l156 889q28 4 59 4q56 0 84 -4l-164 -930q-52 -286 -182 -421q-141 -147 -399 -147q-399 0 -400 394zM793 1593 l266 228q49 6 87 6q83 0 118 -6l-303 -228q-41 -6 -88.5 -6t-79.5 6z" />
<glyph unicode="&#xdb;" horiz-adv-x="1351" d="M270 369q0 74 23 196l160 908q28 4 62 4q53 0 81 -4l-156 -889q-22 -134 -22 -217q0 -141 63.5 -198.5t188 -57.5t195.5 31.5t120 91.5q88 110 131 350l156 889q28 4 59 4q56 0 84 -4l-164 -930q-52 -286 -182 -421q-141 -147 -399 -147q-399 0 -400 394zM633 1593 l273 228q27 6 75 6t84 -6l177 -228q-37 -6 -72 -6t-78 6l-113 140l-172 -142q-25 -4 -49 -4h-41q-58 0 -84 6z" />
<glyph unicode="&#xdc;" horiz-adv-x="1351" d="M270 369q0 74 23 196l160 908q28 4 62 4q53 0 81 -4l-156 -889q-22 -134 -22 -217q0 -141 63.5 -198.5t188 -57.5t195.5 31.5t120 91.5q88 110 131 350l156 889q28 4 59 4q56 0 84 -4l-164 -930q-52 -286 -182 -421q-141 -147 -399 -147q-399 0 -400 394zM653 1593 q0 92 31 183q49 6 95 6t83 -6q0 -96 -30 -183q-43 -6 -89.5 -6t-89.5 6zM1081 1593q0 72 31 183q43 6 89 6t89 -6q0 -95 -30 -183q-49 -6 -95.5 -6t-83.5 6z" />
<glyph unicode="&#xdd;" horiz-adv-x="1103" d="M297 1473q24 4 60 4q66 0 96 -4l225 -775l455 775q32 4 65 4q66 0 90 -4l-565 -936l-92 -537q-32 -4 -63 -4q-57 0 -79 4l97 545zM680 1593l266 228q49 6 87 6q83 0 118 -6l-303 -228q-41 -6 -88.5 -6t-79.5 6z" />
<glyph unicode="&#xde;" horiz-adv-x="1153" d="M213 0l256 1473q28 4 60 4q57 0 81 -4l-39 -238q90 8 174 8t165 -23.5t140 -70.5q124 -100 124 -287q0 -264 -172 -408q-80 -67 -190 -98.5t-209 -31.5t-189 8l-60 -332q-28 -4 -60 -4q-57 0 -81 4zM434 459q20 -2 35.5 -3t30.5 -2q47 -3 86 -3q436 0 436 405 q0 212 -198 249q-58 11 -105.5 11t-66.5 -1t-34.5 -2t-32 -3t-38.5 -4z" />
<glyph unicode="&#xdf;" horiz-adv-x="1142" d="M-233 -477q11 45 40 115q48 -19 100 -19t92 10.5t69 38.5q59 57 88 223l202 1188q41 239 136 337q102 104 307 104q156 0 241.5 -74t85.5 -203q0 -160 -139 -299q-85 -85 -112 -132.5t-27 -95.5t40 -88t88 -85t88 -102.5t40 -136.5t-25.5 -137t-74.5 -101 q-102 -91 -261 -91t-262 48q15 61 45 114q120 -41 189 -41t110 11.5t72 34.5q68 49 68 134q0 107 -129 204q-127 98 -127 225q0 80 44 140t97 117.5t97 121t44 149.5t-60.5 128t-141.5 42t-128 -18.5t-81 -60.5q-58 -73 -93 -277l-198 -1162q-35 -205 -126 -295t-261 -90 q-86 0 -137 23z" />
<glyph unicode="&#xe0;" horiz-adv-x="1110" d="M184 309.5q0 151.5 44 285.5t130 239.5t214 170t296 64.5q151 0 250 -39l-104 -592q-20 -117 -35.5 -197.5t-15.5 -143.5t6 -97q-24 -4 -53 -4q-62 0 -82 4q-13 108 -3.5 156.5t14.5 71.5l9 40q-42 -101 -141 -188q-119 -105 -254 -105t-205 91.5t-70 243zM328 344 q0 -117 43 -183.5t122 -66.5t147.5 49.5t123.5 130.5q108 161 158 410l47 252q-55 14 -150.5 14t-186.5 -46t-158 -128q-146 -177 -146 -432zM598 1481q46 4 83 4h60q23 0 45 -4l193 -267q-37 -6 -76 -6t-76 6z" />
<glyph unicode="&#xe1;" horiz-adv-x="1110" d="M184 309.5q0 151.5 44 285.5t130 239.5t214 170t296 64.5q151 0 250 -39l-104 -592q-20 -117 -35.5 -197.5t-15.5 -143.5t6 -97q-24 -4 -53 -4q-62 0 -82 4q-13 108 -3.5 156.5t14.5 71.5l9 40q-42 -101 -141 -188q-119 -105 -254 -105t-205 91.5t-70 243zM328 344 q0 -117 43 -183.5t122 -66.5t147.5 49.5t123.5 130.5q108 161 158 410l47 252q-55 14 -150.5 14t-186.5 -46t-158 -128q-146 -177 -146 -432zM743 1214l193 267q23 4 46 4h47q51 0 95 -4l-229 -267q-37 -6 -76 -6t-76 6z" />
<glyph unicode="&#xe2;" horiz-adv-x="1110" d="M184 309.5q0 151.5 44 285.5t130 239.5t214 170t296 64.5q151 0 250 -39l-104 -592q-20 -117 -35.5 -197.5t-15.5 -143.5t6 -97q-24 -4 -53 -4q-62 0 -82 4q-13 108 -3.5 156.5t14.5 71.5l9 40q-42 -101 -141 -188q-119 -105 -254 -105t-205 91.5t-70 243zM328 344 q0 -117 43 -183.5t122 -66.5t147.5 49.5t123.5 130.5q108 161 158 410l47 252q-55 14 -150.5 14t-186.5 -46t-158 -128q-146 -177 -146 -432zM526 1214l260 265q27 6 65 6q88 0 115 -6l150 -265q-31 -6 -69 -6t-75 6l-102 183l-172 -183q-34 -6 -88 -6q-60 0 -84 6z" />
<glyph unicode="&#xe3;" horiz-adv-x="1110" d="M184 309.5q0 151.5 44 285.5t130 239.5t214 170t296 64.5q151 0 250 -39l-104 -592q-20 -117 -35.5 -197.5t-15.5 -143.5t6 -97q-24 -4 -53 -4q-62 0 -82 4q-13 108 -3.5 156.5t14.5 71.5l9 40q-42 -101 -141 -188q-119 -105 -254 -105t-205 91.5t-70 243zM328 344 q0 -117 43 -183.5t122 -66.5t147.5 49.5t123.5 130.5q108 161 158 410l47 252q-55 14 -150.5 14t-186.5 -46t-158 -128q-146 -177 -146 -432zM508 1339q93 93 187 93q64 0 123 -26t92.5 -37t71.5 -11t62.5 11t63.5 44q42 -59 47 -86q-95 -90 -188 -90q-62 0 -121 25.5 t-92 37t-71 11.5t-64.5 -14.5t-61.5 -41.5q-36 36 -49 84z" />
<glyph unicode="&#xe4;" horiz-adv-x="1110" d="M184 309.5q0 151.5 44 285.5t130 239.5t214 170t296 64.5q151 0 250 -39l-104 -592q-20 -117 -35.5 -197.5t-15.5 -143.5t6 -97q-24 -4 -53 -4q-62 0 -82 4q-13 108 -3.5 156.5t14.5 71.5l9 40q-42 -101 -141 -188q-119 -105 -254 -105t-205 91.5t-70 243zM328 344 q0 -117 43 -183.5t122 -66.5t147.5 49.5t123.5 130.5q108 161 158 410l47 252q-55 14 -150.5 14t-186.5 -46t-158 -128q-146 -177 -146 -432zM545 1255q5 105 30 175q39 6 82 6t84 -6q-5 -109 -31 -175q-41 -6 -83.5 -6t-81.5 6zM936 1255q5 105 30 175q39 6 82 6t84 -6 q-5 -107 -30 -175q-41 -6 -84 -6t-82 6z" />
<glyph unicode="&#xe5;" horiz-adv-x="1110" d="M184 309.5q0 151.5 44 285.5t130 239.5t214 170t296 64.5q151 0 250 -39l-104 -592q-20 -117 -35.5 -197.5t-15.5 -143.5t6 -97q-24 -4 -53 -4q-62 0 -82 4q-13 108 -3.5 156.5t14.5 71.5l9 40q-42 -101 -141 -188q-119 -105 -254 -105t-205 91.5t-70 243zM328 344 q0 -117 43 -183.5t122 -66.5t147.5 49.5t123.5 130.5q108 161 158 410l47 252q-55 14 -150.5 14t-186.5 -46t-158 -128q-146 -177 -146 -432zM680 1404q0 89 62.5 156.5t156.5 67.5t142.5 -55t48.5 -143t-62.5 -155t-158 -67t-142.5 53.5t-47 142.5zM787 1405 q0 -107 88 -107q51 0 78.5 38t27.5 96q0 106 -84 106q-53 0 -81.5 -39t-28.5 -94z" />
<glyph unicode="&#xe6;" horiz-adv-x="1673" d="M184 309.5q0 151.5 44 285.5t130 239.5t214 170t296 64.5q151 0 250 -39l-22 -129q155 168 360 168q129 0 196.5 -66.5t67.5 -157.5t-43 -154.5t-119 -107.5q-137 -80 -401 -120l-149 -25v-28q0 -145 67.5 -230.5t214.5 -85.5t314 60q20 -46 20 -111 q-98 -41 -201.5 -54.5t-175 -13.5t-141.5 24t-116 63q-88 76 -101 208q-160 -295 -410 -295q-150 0 -222.5 91.5t-72.5 243zM328 344q0 -117 43 -183.5t122 -66.5t147.5 49.5t123.5 130.5q108 161 158 410l47 252q-55 14 -150.5 14t-186.5 -46t-158 -128 q-146 -177 -146 -432zM1022 543l121 20q207 33 321.5 92.5t114.5 165.5q0 55 -39 93t-114 38t-140 -34.5t-118 -91.5q-109 -117 -146 -283z" />
<glyph unicode="&#xe7;" horiz-adv-x="937" d="M199 389q0 125 41 248t118.5 218t191.5 154.5t238 59.5t238 -39q-5 -67 -39 -119q-103 39 -207 39t-188 -51t-140 -130q-110 -157 -110 -363q0 -312 301 -312q104 0 223 39q23 -53 23 -110q-70 -26 -151 -37t-105 -11l-58 -100q10 2 17 2h20q90 0 135.5 -47t45.5 -109 q0 -163 -173 -203q-49 -12 -108 -12q-102 0 -180 39q12 66 39 101q84 -31 125 -31t66.5 2t47.5 11q47 21 47 79q0 80 -131 80q-34 0 -106 -12l-8 8l110 201q-323 49 -323 405z" />
<glyph unicode="&#xe8;" horiz-adv-x="1003" d="M195 387q0 125 43 247t119.5 218t184 156.5t239.5 60.5t201 -66.5t69 -157.5t-43 -154.5t-119 -107.5q-138 -80 -402 -120l-149 -25v-28q0 -147 71.5 -231.5t214.5 -84.5t310 60q20 -46 20 -111q-99 -41 -202 -54.5t-183 -13.5t-158.5 33t-126.5 90q-89 104 -89 289z M356 553l115 18q207 33 322.5 92.5t115.5 165.5q0 55 -39 89t-113.5 34t-138 -33.5t-115.5 -88.5q-106 -114 -147 -277zM522 1481q46 4 83 4h60q23 0 45 -4l193 -267q-37 -6 -76 -6t-76 6z" />
<glyph unicode="&#xe9;" horiz-adv-x="1003" d="M195 387q0 125 43 247t119.5 218t184 156.5t239.5 60.5t201 -66.5t69 -157.5t-43 -154.5t-119 -107.5q-138 -80 -402 -120l-149 -25v-28q0 -147 71.5 -231.5t214.5 -84.5t310 60q20 -46 20 -111q-99 -41 -202 -54.5t-183 -13.5t-158.5 33t-126.5 90q-89 104 -89 289z M356 553l115 18q207 33 322.5 92.5t115.5 165.5q0 55 -39 89t-113.5 34t-138 -33.5t-115.5 -88.5q-106 -114 -147 -277zM657 1214l193 267q23 4 46 4h47q51 0 95 -4l-229 -267q-37 -6 -76 -6t-76 6z" />
<glyph unicode="&#xea;" horiz-adv-x="1003" d="M195 387q0 125 43 247t119.5 218t184 156.5t239.5 60.5t201 -66.5t69 -157.5t-43 -154.5t-119 -107.5q-138 -80 -402 -120l-149 -25v-28q0 -147 71.5 -231.5t214.5 -84.5t310 60q20 -46 20 -111q-99 -41 -202 -54.5t-183 -13.5t-158.5 33t-126.5 90q-89 104 -89 289z M356 553l115 18q207 33 322.5 92.5t115.5 165.5q0 55 -39 89t-113.5 34t-138 -33.5t-115.5 -88.5q-106 -114 -147 -277zM453 1214l260 265q27 6 65 6q88 0 115 -6l150 -265q-31 -6 -69 -6t-75 6l-102 183l-172 -183q-34 -6 -88 -6q-60 0 -84 6z" />
<glyph unicode="&#xeb;" horiz-adv-x="1003" d="M195 387q0 125 43 247t119.5 218t184 156.5t239.5 60.5t201 -66.5t69 -157.5t-43 -154.5t-119 -107.5q-138 -80 -402 -120l-149 -25v-28q0 -147 71.5 -231.5t214.5 -84.5t310 60q20 -46 20 -111q-99 -41 -202 -54.5t-183 -13.5t-158.5 33t-126.5 90q-89 104 -89 289z M356 553l115 18q207 33 322.5 92.5t115.5 165.5q0 55 -39 89t-113.5 34t-138 -33.5t-115.5 -88.5q-106 -114 -147 -277zM465 1255q5 105 30 175q39 6 82 6t84 -6q-5 -109 -31 -175q-41 -6 -83.5 -6t-81.5 6zM856 1255q5 105 30 175q39 6 82 6t84 -6q-5 -107 -30 -175 q-41 -6 -84 -6t-82 6z" />
<glyph unicode="&#xec;" horiz-adv-x="542" d="M225 0l164 930h-127q0 55 19 114h262l-183 -1044q-24 -4 -54 -4q-59 0 -81 4zM229 1481q46 4 83 4h60q23 0 45 -4l193 -267q-37 -6 -76 -6t-76 6z" />
<glyph unicode="&#xed;" horiz-adv-x="542" d="M225 0l164 930h-127q0 55 19 114h262l-183 -1044q-24 -4 -54 -4q-59 0 -81 4zM327 1214l193 267q23 4 46 4h47q51 0 95 -4l-229 -267q-37 -6 -76 -6t-76 6z" />
<glyph unicode="&#xee;" horiz-adv-x="542" d="M146 1214l260 265q27 6 65 6q88 0 115 -6l150 -265q-31 -6 -69 -6t-75 6l-102 183l-172 -183q-34 -6 -88 -6q-60 0 -84 6zM225 0l164 930h-127q0 55 19 114h262l-183 -1044q-24 -4 -54 -4q-59 0 -81 4z" />
<glyph unicode="&#xef;" horiz-adv-x="542" d="M173 1255q5 105 30 175q39 6 82 6t84 -6q-5 -109 -31 -175q-41 -6 -83.5 -6t-81.5 6zM225 0l164 930h-127q0 55 19 114h262l-183 -1044q-24 -4 -54 -4q-59 0 -81 4zM564 1255q5 105 30 175q39 6 82 6t84 -6q-5 -107 -30 -175q-41 -6 -84 -6t-82 6z" />
<glyph unicode="&#xf0;" horiz-adv-x="1146" d="M193 383q0 104 31.5 214t94 199t158.5 146t216 57t203 -50t124 -122q12 264 -111 412l-233 -125q-45 52 -45 107l186 100q-94 61 -229 74q0 17 6 45q6 14 14 35.5t19 33.5q201 -23 323 -116l224 118q18 -16 32.5 -48.5t18.5 -55.5l-189 -100q133 -172 133 -482 q0 -340 -129 -568q-71 -124 -186 -203t-285 -79q-192 0 -291 123q-85 106 -85 285zM336 389q0 -212 131 -271q47 -22 129 -22t155.5 43t126.5 111q107 141 107 305t-74.5 246t-210.5 82q-175 0 -277 -167q-87 -144 -87 -327z" />
<glyph unicode="&#xf1;" horiz-adv-x="1163" d="M207 0l106 610q20 117 36 198t16 141t-7 100q24 4 53 4q61 0 83 -4q6 -24 6 -81q0 -92 -27 -192q42 100 143 189q120 104 249.5 104t198.5 -67.5t69 -198.5q0 -57 -15 -144l-114 -659q-71 -12 -136 0l109 618q14 86 14 164t-47 120t-121 42q-142 0 -262 -177 q-113 -167 -155 -407l-64 -360q-24 -4 -53 -4q-62 0 -82 4zM469 1339q93 93 187 93q64 0 123 -26t92.5 -37t71.5 -11t62.5 11t63.5 44q42 -59 47 -86q-95 -90 -188 -90q-62 0 -121 25.5t-92 37t-71 11.5t-64.5 -14.5t-61.5 -41.5q-36 36 -49 84z" />
<glyph unicode="&#xf2;" horiz-adv-x="1140" d="M199 373q0 106 33.5 228t104.5 226.5t180.5 173t271 68.5t257 -101.5t95.5 -295.5q0 -106 -34 -228t-104.5 -226.5t-180 -173.5t-271.5 -69t-257 101.5t-95 296.5zM342 375q0 -135 62.5 -208t173.5 -73q201 0 319 195q100 165 100 381q0 135 -62.5 207.5t-172.5 72.5 q-201 0 -320 -194q-100 -164 -100 -381zM616 1481q46 4 83 4h60q23 0 45 -4l193 -267q-37 -6 -76 -6t-76 6z" />
<glyph unicode="&#xf3;" horiz-adv-x="1140" d="M199 373q0 106 33.5 228t104.5 226.5t180.5 173t271 68.5t257 -101.5t95.5 -295.5q0 -106 -34 -228t-104.5 -226.5t-180 -173.5t-271.5 -69t-257 101.5t-95 296.5zM342 375q0 -135 62.5 -208t173.5 -73q201 0 319 195q100 165 100 381q0 135 -62.5 207.5t-172.5 72.5 q-201 0 -320 -194q-100 -164 -100 -381zM661 1214l193 267q23 4 46 4h47q51 0 95 -4l-229 -267q-37 -6 -76 -6t-76 6z" />
<glyph unicode="&#xf4;" horiz-adv-x="1140" d="M199 373q0 106 33.5 228t104.5 226.5t180.5 173t271 68.5t257 -101.5t95.5 -295.5q0 -106 -34 -228t-104.5 -226.5t-180 -173.5t-271.5 -69t-257 101.5t-95 296.5zM342 375q0 -135 62.5 -208t173.5 -73q201 0 319 195q100 165 100 381q0 135 -62.5 207.5t-172.5 72.5 q-201 0 -320 -194q-100 -164 -100 -381zM490 1214l260 265q27 6 65 6q88 0 115 -6l150 -265q-31 -6 -69 -6t-75 6l-102 183l-172 -183q-34 -6 -88 -6q-60 0 -84 6z" />
<glyph unicode="&#xf5;" horiz-adv-x="1140" d="M199 373q0 106 33.5 228t104.5 226.5t180.5 173t271 68.5t257 -101.5t95.5 -295.5q0 -106 -34 -228t-104.5 -226.5t-180 -173.5t-271.5 -69t-257 101.5t-95 296.5zM342 375q0 -135 62.5 -208t173.5 -73q201 0 319 195q100 165 100 381q0 135 -62.5 207.5t-172.5 72.5 q-201 0 -320 -194q-100 -164 -100 -381zM465 1339q93 93 187 93q64 0 123 -26t92.5 -37t71.5 -11t62.5 11t63.5 44q42 -59 47 -86q-95 -90 -188 -90q-62 0 -121 25.5t-92 37t-71 11.5t-64.5 -14.5t-61.5 -41.5q-36 36 -49 84z" />
<glyph unicode="&#xf6;" horiz-adv-x="1140" d="M199 373q0 106 33.5 228t104.5 226.5t180.5 173t271 68.5t257 -101.5t95.5 -295.5q0 -106 -34 -228t-104.5 -226.5t-180 -173.5t-271.5 -69t-257 101.5t-95 296.5zM342 375q0 -135 62.5 -208t173.5 -73q201 0 319 195q100 165 100 381q0 135 -62.5 207.5t-172.5 72.5 q-201 0 -320 -194q-100 -164 -100 -381zM510 1255q5 105 30 175q39 6 82 6t84 -6q-5 -109 -31 -175q-41 -6 -83.5 -6t-81.5 6zM901 1255q5 105 30 175q39 6 82 6t84 -6q-5 -107 -30 -175q-41 -6 -84 -6t-82 6z" />
<glyph unicode="&#xf7;" d="M313 651q0 37 6.5 61.5t10.5 46t8 32.5h872q0 -40 -8 -72q-4 -16 -8 -36.5t-8 -31.5h-873zM582 384q0 50 40 87t92 37q111 0 111 -109q0 -47 -35.5 -89t-93 -42t-86 33t-28.5 83zM690 1056q0 50 40 87t92 37t82 -28t30 -78t-36 -92t-93 -42t-86 33t-29 83z" />
<glyph unicode="&#xf8;" horiz-adv-x="1140" d="M129 -33l129 156q-59 96 -59 226t33.5 252t104.5 226.5t180.5 173t250.5 68.5t231 -61l54 63q18 6 62 6t75 -6l-117 -139q68 -102 68 -234t-34 -254t-104.5 -226.5t-180 -173.5t-254.5 -69t-238 68l-64 -76q-29 -6 -57 -6q-59 0 -80 6zM342 375q0 -76 18 -131l549 657 q-59 49 -158.5 49t-178 -55t-130.5 -139q-100 -164 -100 -381zM420 152q63 -57 166 -57.5t181.5 55t129.5 139.5q100 165 100 381q0 71 -24 141z" />
<glyph unicode="&#xf9;" horiz-adv-x="1136" d="M219 242q0 61 14 143l115 659q30 5 56 5q62 0 79 -5l-108 -618q-15 -92 -15 -143q0 -98 47.5 -140.5t120.5 -42.5q140 0 262 178q114 164 156 406l64 360q30 5 55 5q63 0 80 -5l-107 -610q-20 -117 -35.5 -197.5t-15.5 -144t6 -96.5q-24 -4 -53 -4q-62 0 -82 4 q-6 33 -6 85q0 96 27 187q-40 -97 -144 -188q-119 -105 -249 -105t-198.5 68t-68.5 199zM524 1481q46 4 83 4h60q23 0 45 -4l193 -267q-37 -6 -76 -6t-76 6z" />
<glyph unicode="&#xfa;" horiz-adv-x="1136" d="M219 242q0 61 14 143l115 659q30 5 56 5q62 0 79 -5l-108 -618q-15 -92 -15 -143q0 -98 47.5 -140.5t120.5 -42.5q140 0 262 178q114 164 156 406l64 360q30 5 55 5q63 0 80 -5l-107 -610q-20 -117 -35.5 -197.5t-15.5 -144t6 -96.5q-24 -4 -53 -4q-62 0 -82 4 q-6 33 -6 85q0 96 27 187q-40 -97 -144 -188q-119 -105 -249 -105t-198.5 68t-68.5 199zM688 1214l193 267q23 4 46 4h47q51 0 95 -4l-229 -267q-37 -6 -76 -6t-76 6z" />
<glyph unicode="&#xfb;" horiz-adv-x="1136" d="M219 242q0 61 14 143l115 659q30 5 56 5q62 0 79 -5l-108 -618q-15 -92 -15 -143q0 -98 47.5 -140.5t120.5 -42.5q140 0 262 178q114 164 156 406l64 360q30 5 55 5q63 0 80 -5l-107 -610q-20 -117 -35.5 -197.5t-15.5 -144t6 -96.5q-24 -4 -53 -4q-62 0 -82 4 q-6 33 -6 85q0 96 27 187q-40 -97 -144 -188q-119 -105 -249 -105t-198.5 68t-68.5 199zM473 1214l260 265q27 6 65 6q88 0 115 -6l150 -265q-31 -6 -69 -6t-75 6l-102 183l-172 -183q-34 -6 -88 -6q-60 0 -84 6z" />
<glyph unicode="&#xfc;" horiz-adv-x="1136" d="M219 242q0 61 14 143l115 659q30 5 56 5q62 0 79 -5l-108 -618q-15 -92 -15 -143q0 -98 47.5 -140.5t120.5 -42.5q140 0 262 178q114 164 156 406l64 360q30 5 55 5q63 0 80 -5l-107 -610q-20 -117 -35.5 -197.5t-15.5 -144t6 -96.5q-24 -4 -53 -4q-62 0 -82 4 q-6 33 -6 85q0 96 27 187q-40 -97 -144 -188q-119 -105 -249 -105t-198.5 68t-68.5 199zM500 1255q5 105 30 175q39 6 82 6t84 -6q-5 -109 -31 -175q-41 -6 -83.5 -6t-81.5 6zM891 1255q5 105 30 175q39 6 82 6t84 -6q-5 -107 -30 -175q-41 -6 -84 -6t-82 6z" />
<glyph unicode="&#xfd;" horiz-adv-x="960" d="M39 -487q0 77 35 114q47 -14 89 -14t69.5 9t57.5 39q57 58 134 228l47 107q-60 0 -80 4l-170 1044q31 7 70 7t76 -7l143 -964l367 813q41 88 41 143v8q78 13 145 0v-8q0 -54 -49 -157l-508 -1098q-109 -234 -248 -275q-43 -12 -100.5 -12t-118.5 19zM555 1214l193 267 q23 4 46 4h47q51 0 95 -4l-229 -267q-37 -6 -76 -6t-76 6z" />
<glyph unicode="&#xfe;" horiz-adv-x="1126" d="M84 -483l276 1550q23 117 37.5 198t14.5 144t-6 96q24 4 53 4q60 0 82 -4q6 -24 6 -57q0 -114 -27 -244l-57 -327q59 82 138 137t211 55t219 -99.5t87 -266.5t-49 -299t-139 -227q-191 -202 -504 -202q-34 0 -125 11l-80 -469q-20 -4 -50 -4q-63 0 -87 4zM326 109 q62 -17 146.5 -17t176.5 36t165 108q161 157 161 423q0 137 -60.5 212t-162.5 75q-195 0 -302 -248q-38 -90 -61 -221z" />
<glyph unicode="&#xff;" horiz-adv-x="960" d="M39 -487q0 77 35 114q47 -14 89 -14t69.5 9t57.5 39q57 58 134 228l47 107q-60 0 -80 4l-170 1044q31 7 70 7t76 -7l143 -964l367 813q41 88 41 143v8q78 13 145 0v-8q0 -54 -49 -157l-508 -1098q-109 -234 -248 -275q-43 -12 -100.5 -12t-118.5 19zM388 1255 q5 105 30 175q39 6 82 6t84 -6q-5 -109 -31 -175q-41 -6 -83.5 -6t-81.5 6zM779 1255q5 105 30 175q39 6 82 6t84 -6q-5 -107 -30 -175q-41 -6 -84 -6t-82 6z" />
<glyph unicode="&#x152;" horiz-adv-x="1849" d="M248 490q0 223 50 403t144.5 314t230.5 212t290.5 78t291.5 -24h758q0 -42 -6 -66l-16 -64h-615l-88 -497h494q0 -60 -23 -129h-493l-103 -588h631q-2 -12 -3 -29.5t-4 -32.5l-7 -35q-4 -20 -8 -32h-793q-133 -25 -251 -25t-210 40t-152 112q-118 140 -118 363zM395 545 q0 -449 369 -449q147 0 254 29l215 1218q-112 35 -251.5 35t-246 -66.5t-182.5 -179.5q-158 -236 -158 -587z" />
<glyph unicode="&#x153;" horiz-adv-x="1763" d="M190 373q0 106 34 228t104.5 226.5t180 173t259.5 68.5q134 0 223 -80q82 -74 105 -190q76 119 190.5 194.5t251.5 75.5t204.5 -66.5t67.5 -157.5t-43 -154.5t-119 -107.5q-137 -80 -401 -120l-149 -25v-28q0 -147 71.5 -231.5t214.5 -84.5t310 60q20 -46 20 -111 q-98 -41 -201.5 -54.5t-146.5 -13.5q-316 0 -375 261q-66 -111 -173 -186t-272 -75t-260.5 101.5t-95.5 296.5zM334 375q0 -135 62 -208t173 -73q202 0 320 195q100 165 100 381q0 135 -62.5 207.5t-172.5 72.5q-202 0 -320 -194q-100 -165 -100 -381zM1112 543l121 20 q207 33 321.5 92.5t114.5 165.5q0 55 -39 93t-113.5 38t-140 -34.5t-118.5 -91.5q-109 -117 -146 -283z" />
<glyph unicode="&#x178;" horiz-adv-x="1103" d="M297 1473q24 4 60 4q66 0 96 -4l225 -775l455 775q32 4 65 4q66 0 90 -4l-565 -936l-92 -537q-32 -4 -63 -4q-57 0 -79 4l97 545zM505 1593q0 92 31 183q49 6 95 6t83 -6q0 -96 -30 -183q-43 -6 -89.5 -6t-89.5 6zM933 1593q0 72 31 183q43 6 89 6t89 -6q0 -95 -30 -183 q-49 -6 -95.5 -6t-83.5 6z" />
<glyph unicode="&#x2c6;" horiz-adv-x="1024" d="M422 1214l260 265q27 6 65 6q88 0 115 -6l150 -265q-31 -6 -69 -6t-75 6l-102 183l-172 -183q-34 -6 -88 -6q-60 0 -84 6z" />
<glyph unicode="&#x2dc;" horiz-adv-x="1024" d="M391 1339q93 93 187 93q64 0 123 -26t92.5 -37t71.5 -11t62.5 11t63.5 44q42 -59 47 -86q-95 -90 -188 -90q-62 0 -121 25.5t-92 37t-71 11.5t-64.5 -14.5t-61.5 -41.5q-36 36 -49 84z" />
<glyph unicode="&#x2000;" horiz-adv-x="958" />
<glyph unicode="&#x2001;" horiz-adv-x="1917" />
<glyph unicode="&#x2002;" horiz-adv-x="958" />
<glyph unicode="&#x2003;" horiz-adv-x="1917" />
<glyph unicode="&#x2004;" horiz-adv-x="639" />
<glyph unicode="&#x2005;" horiz-adv-x="479" />
<glyph unicode="&#x2006;" horiz-adv-x="319" />
<glyph unicode="&#x2007;" horiz-adv-x="319" />
<glyph unicode="&#x2008;" horiz-adv-x="239" />
<glyph unicode="&#x2009;" horiz-adv-x="383" />
<glyph unicode="&#x200a;" horiz-adv-x="106" />
<glyph unicode="&#x2010;" horiz-adv-x="686" d="M195 514q4 72 24 139h520q0 -31 -10 -71q-4 -16 -7 -37t-7 -31h-520z" />
<glyph unicode="&#x2011;" horiz-adv-x="686" d="M195 514q4 72 24 139h520q0 -31 -10 -71q-4 -16 -7 -37t-7 -31h-520z" />
<glyph unicode="&#x2012;" horiz-adv-x="686" d="M195 514q4 72 24 139h520q0 -31 -10 -71q-4 -16 -7 -37t-7 -31h-520z" />
<glyph unicode="&#x2013;" horiz-adv-x="1024" d="M88 514q5 82 25 137h1024q-4 -77 -25 -137h-1024z" />
<glyph unicode="&#x2014;" horiz-adv-x="2048" d="M88 514q2 66 25 137h2048q-4 -77 -25 -137h-2048z" />
<glyph unicode="&#x2018;" horiz-adv-x="409" d="M297 1473q32 4 60 4h45q18 0 36 -2l115 -408q-16 -4 -33 -4h-63t-47 4z" />
<glyph unicode="&#x2019;" horiz-adv-x="423" d="M285 1065l176 408q18 2 35 2h36q43 0 70 -5l-174 -405q-20 -4 -38 -4h-62.5t-42.5 4z" />
<glyph unicode="&#x201a;" horiz-adv-x="399" d="M12 -231l176 405q18 4 36 4h37q35 0 69 -4l-174 -405q-25 -5 -60 -5h-50q-17 0 -34 5z" />
<glyph unicode="&#x201c;" horiz-adv-x="757" d="M297 1473q32 4 60 4h45q18 0 36 -2l115 -408q-16 -4 -33 -4h-63t-47 4zM645 1473q32 4 60 4h45q18 0 36 -2l115 -408q-16 -4 -33 -4h-63t-47 4z" />
<glyph unicode="&#x201d;" horiz-adv-x="772" d="M285 1065l176 408q18 2 35 2h36q43 0 70 -5l-174 -405q-20 -4 -38 -4h-62.5t-42.5 4zM633 1065l176 408q18 2 35 2h36q43 0 70 -5l-174 -405q-20 -4 -38 -4h-62.5t-42.5 4z" />
<glyph unicode="&#x201e;" horiz-adv-x="747" d="M12 -231l176 405q18 4 36 4h37q35 0 69 -4l-174 -405q-25 -5 -60 -5h-50q-17 0 -34 5zM360 -231l176 405q18 4 36 4h37q35 0 69 -4l-174 -405q-25 -5 -60 -5h-50q-17 0 -34 5z" />
<glyph unicode="&#x2022;" horiz-adv-x="768" d="M262 681q0 48 18.5 90t49.5 73q67 67 164 67q94 0 161.5 -67.5t67.5 -161.5q0 -95 -67 -164q-66 -67 -162 -67q-99 0 -164 67q-68 69 -68 163z" />
<glyph unicode="&#x2026;" horiz-adv-x="1333" d="M113 0q0 71 28 174q43 6 88 6t86 -6q0 -67 -28 -174q-53 -6 -100 -6t-74 6zM580 0q0 71 28 174q43 6 88 6t86 -6q0 -67 -28 -174q-53 -6 -100 -6t-74 6zM1047 0q0 71 28 174q43 6 88 6t86 -6q0 -67 -28 -174q-53 -6 -100 -6t-74 6z" />
<glyph unicode="&#x202f;" horiz-adv-x="383" />
<glyph unicode="&#x2039;" horiz-adv-x="659" d="M174 557l428 442q32 7 81.5 7t90.5 -7l-428 -450l270 -455q-41 -6 -79.5 -6t-75.5 6z" />
<glyph unicode="&#x203a;" horiz-adv-x="720" d="M111 94l432 457l-275 448q86 13 156 0l287 -462l-435 -443q-27 -6 -77 -6t-88 6z" />
<glyph unicode="&#x205f;" horiz-adv-x="479" />
<glyph unicode="&#x20ac;" d="M162 504q-4 64 22 119h135q8 111 27 206h-127q-2 55 21 119h139q121 370 441 482q112 40 237 40q181 0 313 -49q-19 -70 -47 -118q-122 43 -247 43t-210.5 -30t-151.5 -82q-121 -97 -188 -286h623q7 -52 -21 -119h-632q-18 -89 -27 -206h625q0 -59 -23 -119h-600 q10 -197 100.5 -299.5t272.5 -102.5t311 68q31 -47 37 -117q-160 -78 -363 -78q-250 0 -377.5 137.5t-134.5 391.5h-155z" />
<glyph unicode="&#x2122;" horiz-adv-x="1730" d="M240 1389q0 35 6 59h631q6 -24 6 -54t-6 -61h-256v-704q-24 -6 -49 -6h-40q-16 0 -30 4v706h-256q-6 24 -6 56zM975 627l39 821q32 4 56 4q47 0 79 -4l240 -492l237 492q32 4 58 4q45 0 77 -4l37 -819q-24 -6 -48 -6h-38q-16 0 -31 4l-32 602l-224 -441q-24 -4 -43 -4 q-17 0 -43 4l-215 439l-28 -598q-24 -6 -49 -6h-41q-15 0 -31 4z" />
<glyph unicode="&#xe000;" horiz-adv-x="1054" d="M0 0v1055h1055v-1055h-1055z" />
</font>
</defs>
</svg>
